<svg width="45" height="45" viewBox="0 0 45 45" fill="none" xmlns="http://www.w3.org/2000/svg">
<path d="M41.614 30.2998C39.4514 28.8377 37.108 28.5286 34.6167 29.3055C34.4723 29.3501 34.2457 29.3748 34.1494 29.2961C33.7444 28.9635 33.3745 28.5874 32.9308 28.1702C33.0693 28.082 33.1421 28.0526 33.1926 28.0021C34.2938 26.9068 35.4103 25.8255 36.4846 24.7055C37.2759 23.8804 37.472 22.8768 37.0505 21.8155C36.6372 20.7754 35.8342 20.1972 34.7083 20.0914C34.5979 20.0808 34.4887 20.0597 34.3631 20.042C34.4335 19.157 34.2304 18.3814 33.6786 17.715C33.121 17.0416 32.3766 16.7113 31.5043 16.6032C31.7743 15.5243 31.6252 14.5688 30.949 13.7367C30.261 12.8905 29.3347 12.5685 28.3003 12.6167C28.2534 12.23 28.2475 11.8739 28.1618 11.5366C27.5924 9.30243 24.8604 8.48562 23.1698 10.0593C22.4536 10.7257 21.8067 11.4673 21.107 12.1971C20.527 11.6048 19.927 11.3509 19.1804 11.4626C18.4184 11.5777 18.0157 12.1959 17.4616 12.6672C16.8957 12.0937 16.3615 11.5307 15.8015 10.996C15.5913 10.795 15.549 10.6281 15.6453 10.3496C16.0703 9.13789 16.1842 7.88741 15.9635 6.62399C15.2884 2.77029 12.2911 0.149447 8.38267 0.0072395C7.45988 -0.025668 6.53121 0.040147 5.68942 0.487924C4.95329 0.880463 4.77366 1.60678 5.2245 2.30959C5.35012 2.50468 5.50744 2.6845 5.67181 2.84904C6.78363 3.95379 7.90601 5.04914 9.01431 6.15741C9.20803 6.35133 9.39235 6.57463 9.5168 6.81674C9.90071 7.56773 9.87606 8.33048 9.40174 9.02742C8.96852 9.66441 8.28992 9.79016 7.56906 9.72905C7.01961 9.68204 6.57465 9.41761 6.19073 9.02859C5.07891 7.90269 3.96709 6.7756 2.84588 5.66028C2.64042 5.45578 2.40562 5.26774 2.1532 5.12905C1.565 4.80703 0.934539 4.96099 0.585848 5.53335C0.399175 5.83892 0.294685 6.19972 0.181977 6.54408C0.0974456 6.80381 0.0587022 7.07882 0 7.34796V9.01919C0.0950976 9.44581 0.17141 9.87831 0.287641 10.2991C1.4746 14.597 6.05807 17.0498 10.2964 15.6453C10.6169 15.5396 10.8165 15.556 11.0548 15.8134C11.6019 16.4046 12.1807 16.9663 12.7619 17.5246C12.9333 17.6891 12.9497 17.829 12.9039 18.0593C12.7853 18.6587 12.6398 19.271 12.6538 19.874C12.682 21.0786 12.3979 22.1822 11.7217 23.1553C11.164 23.958 10.5441 24.7255 9.88428 25.4471C9.07536 26.3332 8.19365 27.1536 7.35069 28.0092C7.18984 28.1737 7.05835 28.2231 6.81885 28.1443C5.94888 27.8599 5.17753 28.0538 4.52477 28.7061C3.44817 29.7838 2.36452 30.8557 1.29262 31.9381C0.351039 32.8889 0.334602 34.164 1.27619 35.1089C4.32753 38.1693 7.37887 41.2309 10.4643 44.2572C10.8259 44.6122 11.3929 44.7567 11.8649 45H12.129C12.6961 44.8836 13.215 44.6909 13.6377 44.2596C14.6943 43.1819 15.7698 42.1218 16.837 41.0558C17.512 40.3824 17.7175 39.5985 17.4169 38.6818C17.3817 38.5725 17.404 38.3821 17.4792 38.308C18.969 36.8143 20.4695 35.3311 21.9687 33.8467C22.4548 33.366 23.0312 33.1897 23.6993 33.3625C25.1116 33.7292 26.4512 33.5376 27.7403 32.8677C27.8471 32.8125 28.0773 32.8618 28.1747 32.9476C28.5363 33.2673 28.8545 33.6352 29.2137 33.9584C29.4204 34.1441 29.4145 34.3086 29.3605 34.5683C29.2724 34.9926 29.1985 35.4204 29.1292 35.8482C29.1292 35.8482 28.9907 36.2877 28.9496 36.9906C28.9437 37.0305 28.9367 37.0716 28.9308 37.1116C28.9155 37.2091 28.9249 37.3137 28.9378 37.4125C28.9414 38.4632 29.1867 39.9181 30.2128 41.3837C30.2164 41.3896 30.2211 41.3955 30.2246 41.4002C31.8049 43.84 34.7623 45.255 37.6751 44.8836C38.1776 44.8202 38.6918 44.7097 39.1567 44.5158C40.0678 44.135 40.2674 43.3053 39.6933 42.5049C39.5911 42.3627 39.4714 42.2311 39.3469 42.1088C38.2551 41.0252 37.1585 39.9464 36.0655 38.8628C35.9199 38.7182 35.7696 38.5736 35.6522 38.4079C35.1661 37.718 35.0969 36.9753 35.4221 36.1996C35.7132 35.5038 36.3085 35.2512 36.9976 35.19C37.6927 35.1289 38.2868 35.3816 38.7787 35.8799C39.8905 37.0058 41.0035 38.1306 42.1212 39.2506C42.5521 39.6831 43.0111 40.0933 43.692 39.9217C44.3906 39.7454 44.5996 39.1542 44.7816 38.5525C44.7898 38.5243 44.7968 38.4961 44.8039 38.4679C45.5165 35.3652 44.2497 32.0779 41.6128 30.2951L41.614 30.2998ZM33.5037 21.8214C33.7502 21.5851 34.1201 21.4794 34.4335 21.3148C35.0828 21.4077 35.5266 21.6733 35.7872 22.2104C36.049 22.751 36.0009 23.301 35.5923 23.7265C34.5063 24.8559 33.4004 25.9689 32.2663 27.049C31.6898 27.5978 30.8222 27.5085 30.295 26.9326C29.7855 26.3767 29.7831 25.5423 30.3291 24.984C31.374 23.9157 32.4259 22.8533 33.5049 21.8214H33.5037ZM32.0479 18.0981C32.7089 18.3943 33.0376 18.9361 33.0681 19.9092C32.9613 20.1114 32.8251 20.5627 32.5386 20.8753C31.7591 21.7274 30.9255 22.5324 30.0943 23.3351C29.364 24.0391 28.2862 24.0191 27.6159 23.321C26.9607 22.637 26.9807 21.591 27.6828 20.8741C28.4929 20.0491 29.3065 19.2264 30.1401 18.426C30.6883 17.8995 31.3528 17.7867 32.0479 18.097V18.0981ZM27.5032 14.342C28.1559 13.7367 29.182 13.8143 29.8113 14.4407C30.4535 15.08 30.5134 16.1143 29.8876 16.7854C29.1996 17.5234 28.4623 18.2133 27.7391 18.9326C26.9408 18.0946 26.1659 17.2801 25.404 16.481C26.1096 15.757 26.7764 15.0178 27.5043 14.342H27.5032ZM24.2323 10.8996C24.8439 10.3484 25.8466 10.4836 26.4336 11.0665C27.0265 11.6553 27.1674 12.6496 26.6144 13.2654C25.9252 14.0341 25.1316 14.7087 24.4049 15.4021C23.6546 14.644 22.8669 13.8472 22.1237 13.0962C22.7941 12.3887 23.4656 11.5919 24.2323 10.9008V10.8996ZM11.6043 14.503C11.2203 14.0846 10.8576 14.0258 10.3245 14.228C7.72991 15.2093 5.34542 14.7862 3.32959 12.887C1.58026 11.2393 1.00498 9.15082 1.48164 6.78618C1.50865 6.65103 1.565 6.52057 1.60727 6.38777C1.66479 6.34663 1.72232 6.3055 1.78102 6.26436C1.85851 6.40775 1.90782 6.57816 2.01701 6.68863C3.11474 7.80749 4.21247 8.92634 5.33016 10.0252C6.3234 11.003 7.52093 11.2828 8.85229 10.9208C11.1875 10.285 11.6418 7.44081 10.4419 5.79661C10.2705 5.56155 10.0686 5.3453 9.86314 5.13846C8.81824 4.09129 7.76982 3.04766 6.71318 2.01225C6.60165 1.90295 6.42906 1.85711 6.28466 1.78189C6.32692 1.69492 6.36919 1.60795 6.41145 1.52098C7.01022 1.45164 7.60898 1.32354 8.20774 1.32119C12.8417 1.31061 15.9999 5.9964 14.2693 10.2944C13.9864 10.9983 13.9946 11.0465 14.5464 11.5966C15.1992 12.2476 15.8543 12.8976 16.5305 13.5698C15.5349 14.5183 14.5534 15.4526 13.5731 16.3858L13.6577 16.5186C13.5719 16.4481 13.4804 16.3846 13.4029 16.3082C12.7994 15.71 12.1795 15.1271 11.6054 14.5018L11.6043 14.503ZM15.7885 40.2425C14.7836 41.2474 13.7798 42.2534 12.7724 43.2547C12.2511 43.773 11.8168 43.7754 11.3002 43.2606C8.30284 40.2695 5.30785 37.2785 2.31287 34.2851C1.76107 33.7339 1.76224 33.3343 2.31169 32.7831C3.33546 31.7559 4.36157 30.7311 5.39004 29.7086C5.90309 29.1985 6.31518 29.1974 6.82824 29.7062C7.42818 30.3021 10.0005 32.863 12.2418 35.0972C12.277 35.1419 12.3169 35.1853 12.3603 35.23C13.4992 36.37 14.6415 37.5077 15.7803 38.6465C16.3861 39.2529 16.3885 39.6408 15.7885 40.2413V40.2425ZM24.7688 32.1908C24.5399 32.1414 24.3027 32.1308 24.0761 32.0768C22.7177 31.75 21.6494 32.2601 20.7125 33.205C19.414 34.5166 18.1002 35.8129 16.7959 37.1198C16.6996 37.2162 16.6221 37.3349 16.5035 37.4889C15.1851 36.162 9.23268 30.2398 8.46368 29.4794C8.35098 29.3678 8.20892 29.2843 8.05159 29.1656C8.56935 28.6485 9.03309 28.2219 9.45575 27.7588C10.51 26.6024 11.6054 25.4765 12.5717 24.2495C13.5766 22.9731 14.0404 21.4735 13.9629 19.8175C13.9077 18.6446 14.3433 17.6492 15.1827 16.8206C16.4249 15.5972 17.6506 14.3573 18.8845 13.1267C19.3788 12.6343 19.6558 12.6296 20.1372 13.1103C22.065 15.0366 23.9916 16.964 25.917 18.8914C26.0614 19.036 26.1988 19.1888 26.335 19.3427C26.8105 19.8834 26.7001 20.3558 26.0156 20.6626C25.2772 20.994 24.5258 20.9082 23.785 20.6802C22.8892 20.404 22.1002 19.9421 21.4345 19.2757C20.8956 18.7375 20.3638 18.1922 19.8132 17.6656C19.5138 17.38 19.1181 17.3812 18.8716 17.6504C18.6051 17.943 18.6027 18.2697 18.861 18.5624C19.731 19.5425 19.711 20.6626 19.2743 21.7767C19.023 22.4172 18.5745 22.9825 18.2071 23.5761C18.1308 23.6983 18.0075 23.7911 17.9206 23.9087C17.6952 24.2119 17.714 24.5104 17.9723 24.7819C18.2118 25.0322 18.6004 25.0357 18.8821 24.7831C19.0665 24.6185 19.225 24.4258 19.3717 24.2718C21.8689 26.7881 24.3591 29.2972 26.8551 31.8123C26.2458 32.0685 25.5578 32.36 24.77 32.1908H24.7688ZM43.3739 38.5983C43.2471 38.4902 43.1555 38.422 43.0757 38.3421C42.3219 37.5829 41.5729 36.819 40.818 36.0621C40.3636 35.6049 39.9187 35.136 39.4385 34.7082C37.7526 33.2038 34.4312 33.6657 33.9627 36.5134C33.7808 37.617 34.052 38.6124 34.8022 39.4516C35.1826 39.877 35.6029 40.2672 36.0044 40.6727C36.8685 41.5459 37.7314 42.4191 38.6296 43.3276C38.4511 43.3864 38.3055 43.4533 38.1529 43.4804C35.8306 43.8976 33.789 43.3417 32.1195 41.6481C31.752 41.2756 31.4855 40.8055 31.172 40.3765C30.7858 39.7148 30.2821 38.5607 30.2492 36.9976C30.2786 36.1808 30.4218 35.3863 30.7353 34.6212C31.0089 33.9513 30.9924 33.8808 30.4653 33.3543C27.1791 30.0718 23.8953 26.7857 20.5998 23.5126C20.2969 23.2117 20.183 22.9931 20.3849 22.5512C20.6221 22.0294 20.696 21.4324 20.8416 20.8682C20.8616 20.793 20.8862 20.719 20.9179 20.6144C22.382 21.718 23.9481 22.3867 25.7926 22.1434C25.9757 23.9169 26.9431 24.9229 28.6819 25.1991C28.6713 25.2955 28.6631 25.366 28.6549 25.4365C28.433 27.351 29.5378 28.6403 31.4585 28.7284C31.61 28.7355 31.7861 28.8354 31.9 28.9447C32.4294 29.4512 32.9566 29.9613 33.4544 30.4984C33.7925 30.8627 34.133 30.9238 34.5909 30.7393C38.7599 29.0504 43.1731 31.6877 43.651 36.1538C43.7378 36.9682 43.6768 37.7768 43.3762 38.6007L43.3739 38.5983Z" fill="#157B97"/>
</svg>
