<svg width="45" height="42" viewBox="0 0 45 42" fill="none" xmlns="http://www.w3.org/2000/svg">
<path d="M24.8679 34.0324C25.1285 36.3265 26.0439 38.1485 27.9931 39.3598C28.2713 39.5335 28.5723 39.6745 28.8744 39.8042C29.2837 39.9818 29.5304 40.2563 29.4222 40.7171C29.3177 41.1603 28.9714 41.2711 28.5546 41.2699C25.0681 41.2661 21.5816 41.2673 18.095 41.2673C16.5564 41.2673 15.0165 41.2673 13.4778 41.2673C12.8961 41.2673 12.6153 41.0936 12.5335 40.6919C12.4491 40.2814 12.6304 40.012 13.1567 39.7778C15.5365 38.7201 16.7037 36.7962 17.0676 34.3006C17.0777 34.2275 17.0613 34.1507 17.0537 34.0311C16.851 34.0311 16.6659 34.0311 16.4796 34.0311C12.2552 34.0311 8.02955 33.9845 3.80518 34.05C1.63695 34.0865 -0.0137639 32.4333 8.6517e-05 30.2437C0.0466743 22.6259 0.0177143 15.0095 0.0177143 7.39172C0.0177143 5.03589 1.47705 3.58537 3.84799 3.58411C14.6853 3.58411 25.5226 3.5816 36.3587 3.59293C36.7541 3.59293 37.026 3.48087 37.298 3.1963C38.1013 2.35646 38.9311 1.54181 39.7571 0.724632C40.7354 -0.243639 41.9845 -0.241121 42.9704 0.729668C43.43 1.18044 43.8883 1.63372 44.3328 2.0996C45.2305 3.03891 45.2217 4.27915 44.3101 5.21343C43.6302 5.90973 42.944 6.60225 42.2426 7.27588C42.0185 7.49119 41.9442 7.71406 41.9442 8.01751C41.9518 15.4464 41.9505 22.8752 41.9492 30.3041C41.9492 32.189 40.8626 33.6018 39.1275 33.9631C38.809 34.0299 38.4728 34.0286 38.1442 34.0286C33.9349 34.0324 29.7256 34.0311 25.5163 34.0311H24.8692L24.8679 34.0324ZM35.3741 5.20461L35.2922 5.03967H34.7911C24.4889 5.03967 14.1867 5.03967 3.8845 5.03967C2.2426 5.03967 1.45816 5.82285 1.45816 7.46097C1.45816 15.0309 1.45816 22.5995 1.45816 30.1694C1.45816 31.7999 2.25519 32.5945 3.88954 32.5945C15.2746 32.5945 26.6596 32.5945 38.0459 32.5945C39.7193 32.5945 40.5012 31.8188 40.5012 30.1517C40.5012 23.321 40.5012 16.4889 40.5012 9.65815V9.05503C40.2872 9.25901 40.1613 9.37359 40.0417 9.49447C36.0339 13.5035 32.0273 17.5151 28.0107 21.5166C27.8004 21.7257 27.5108 21.9208 27.2275 21.98C25.9079 22.2545 24.5783 22.4887 23.2499 22.7166C22.5335 22.8387 22.1608 22.4471 22.2905 21.7408C22.5221 20.4753 22.7387 19.2074 23.0107 17.9508C23.085 17.6083 23.2713 17.2381 23.5168 16.9913C27.3219 13.156 31.1447 9.33959 34.9661 5.52066C35.087 5.39978 35.2381 5.31038 35.3753 5.20587L35.3741 5.20461ZM27.3484 20.2298C27.4579 20.0875 27.5498 19.9364 27.6707 19.8155C29.1666 18.3134 30.6662 16.8163 32.1645 15.3179C35.816 11.6665 39.4688 8.01373 43.1202 4.36226C43.7045 3.77802 43.702 3.50353 43.1139 2.91174C42.7929 2.58814 42.4705 2.26832 42.1482 1.94599C41.4922 1.28872 41.2378 1.28369 40.5932 1.92836C35.432 7.09079 30.2708 12.2532 25.1109 17.4156C25.0051 17.5214 24.9082 17.6373 24.8364 17.7153C25.6624 18.5426 26.4594 19.3409 27.3471 20.2311L27.3484 20.2298ZM15.8664 39.7501H25.884C25.3388 38.8863 24.6815 38.0503 24.2534 37.1084C23.819 36.1528 23.61 35.0938 23.2877 34.0311H19.5997C18.9198 34.0311 18.5177 34.3698 18.3934 35.0472C18.3821 35.1089 18.367 35.1694 18.3544 35.2311C17.9842 36.9599 17.2187 38.4746 15.8676 39.7488L15.8664 39.7501ZM25.6284 20.8065L24.1905 19.4089C24.0973 19.9226 23.9928 20.4942 23.8782 21.1276C24.5229 21.0092 25.0983 20.9034 25.6297 20.8065H25.6284Z" fill="#157B97"/>
<path d="M11.0691 19.6204C10.9696 18.5942 10.9835 17.5416 10.748 16.5468C10.1978 14.22 8.05096 12.529 5.66743 12.4169C5.04038 12.3879 4.41208 12.4081 3.78377 12.398C3.21339 12.3892 2.8709 12.1072 2.87594 11.6639C2.87972 11.2195 3.2222 10.9425 3.79259 10.9412C5.00009 10.9387 6.20885 10.8845 7.38866 11.2484C10.3652 12.1663 12.3899 14.8634 12.439 18.0175C12.4567 19.1784 12.4378 20.3406 12.4453 21.5028C12.4579 23.4393 13.7347 24.7589 15.67 24.808C16.2152 24.8218 16.778 24.813 17.3043 24.6909C18.5874 24.3912 19.4738 23.3461 19.6463 22.0455C19.6652 21.9057 19.6765 21.7647 19.6941 21.6249C19.752 21.1767 20.0265 20.9085 20.4194 20.9148C20.8299 20.9223 21.1346 21.2346 21.1258 21.6929C21.0981 23.0137 20.5957 24.1293 19.6324 25.0346C18.3532 26.2371 16.783 26.4235 15.1474 26.2295C12.6833 25.9387 11.0389 24.0651 10.9835 21.5594C10.9696 20.916 10.981 20.2726 10.981 19.6279L11.0704 19.6191L11.0691 19.6204Z" fill="#157B97"/>
</svg>
