<svg width="45" height="43" viewBox="0 0 45 43" fill="none" xmlns="http://www.w3.org/2000/svg">
<path d="M27.3397 10.4353C25.8005 10.4353 24.3388 10.4366 22.8757 10.4353C21.4243 10.4327 20.5121 9.54764 20.5031 8.10264C20.4915 6.18802 20.4928 4.2721 20.5031 2.35748C20.5108 0.900867 21.4088 0.00419308 22.8551 0.0029029C29.453 -0.000967634 36.051 -0.000967634 42.649 0.0029029C44.0979 0.0029029 44.9945 0.908608 44.9971 2.35619C45.001 4.27081 45.001 6.18673 44.9971 8.10135C44.9945 9.51926 44.0862 10.4301 42.6774 10.434C41.3575 10.4379 40.0377 10.434 38.7191 10.434C38.5462 10.434 38.3733 10.434 38.1514 10.434C38.1514 11.2997 38.1514 12.1151 38.1514 12.9318C38.1514 13.8014 38.1605 14.6697 38.1463 15.5392C38.1411 15.8089 38.2185 15.9637 38.4649 16.1082C40.2751 17.1649 40.2428 19.531 38.4262 20.5864C38.2959 20.6625 38.1669 20.8664 38.163 21.0147C38.1398 22.0443 38.1398 23.0752 38.163 24.1034C38.1669 24.2518 38.2972 24.4531 38.4288 24.5331C40.2634 25.6478 40.2647 27.974 38.4314 29.0577C38.2933 29.139 38.1669 29.3674 38.163 29.5299C38.1385 30.5272 38.1359 31.5258 38.1656 32.5231C38.1708 32.696 38.323 32.9334 38.4765 33.025C40.2467 34.083 40.2518 36.4762 38.4598 37.4826C38.2005 37.6284 38.1411 37.7896 38.1476 38.0528C38.1617 38.5999 38.1579 39.1469 38.1501 39.694C38.1295 41.1918 37.0522 42.2911 35.562 42.3027C33.6951 42.3182 31.8283 42.3169 29.9614 42.3027C28.448 42.2911 27.3565 41.1931 27.3436 39.6656C27.3281 37.7019 27.3333 35.7383 27.3462 33.7759C27.3475 33.4856 27.2713 33.3218 27.0107 33.1682C25.2535 32.1374 25.2625 29.7583 27.0262 28.7494C27.2494 28.6216 27.3513 28.5017 27.3462 28.2346C27.3294 27.2373 27.3539 26.2387 27.3255 25.2414C27.3204 25.0659 27.1797 24.8246 27.0288 24.733C25.2587 23.6519 25.2613 21.3128 27.034 20.2523C27.1836 20.1632 27.3204 19.9194 27.3255 19.7439C27.3539 18.7789 27.3255 17.8125 27.3462 16.8475C27.3526 16.5327 27.252 16.3701 26.9772 16.2075C25.2974 15.2167 25.2754 12.8544 26.9398 11.8622C27.2443 11.6803 27.3913 11.5074 27.3436 11.1552C27.3139 10.9372 27.3384 10.7114 27.3384 10.434L27.3397 10.4353ZM27.8377 1.37694V9.04189H37.6766V1.37694H27.8377ZM36.7967 37.8529C34.077 36.5601 31.4154 35.2944 28.6983 34.003C28.6983 35.9873 28.6802 37.8851 28.7073 39.7804C28.7176 40.4577 29.2273 40.939 29.8904 40.9441C31.805 40.9596 33.721 40.9609 35.6356 40.9428C36.2961 40.9364 36.7722 40.4281 36.7916 39.7572C36.8109 39.1147 36.7954 38.4709 36.7954 37.8529H36.7967ZM26.4263 1.35372C25.2084 1.35372 24.0214 1.34856 22.8357 1.35501C22.17 1.35888 21.8707 1.6582 21.8539 2.33168C21.8436 2.76517 21.8513 3.19997 21.8513 3.63347C21.8513 5.11201 21.8474 6.59184 21.8539 8.07039C21.8565 8.67677 22.1171 9.05737 22.6074 9.0677C23.8717 9.09479 25.1374 9.07673 26.4263 9.07673V1.35372ZM39.0868 9.07415C40.3809 9.07415 41.6491 9.09221 42.9148 9.06383C43.3702 9.0535 43.6411 8.67032 43.6437 8.14522C43.6489 6.19834 43.6502 4.25146 43.6437 2.30458C43.6411 1.66981 43.3289 1.36275 42.689 1.35501C41.9484 1.34598 41.2091 1.35243 40.4686 1.35243C40.008 1.35243 39.5474 1.35243 39.0868 1.35243V9.07415ZM38.4391 35.1551C38.4366 34.67 38.0779 34.3294 37.5592 34.0843C35.6575 33.1863 33.7609 32.2767 31.8631 31.371C30.8348 30.8807 29.813 30.3737 28.7744 29.9028C28.0235 29.5622 27.252 29.9376 27.0688 30.6924C26.932 31.2536 27.2133 31.78 27.8416 32.0819C29.4763 32.8702 31.1148 33.6482 32.7507 34.4313C34.0538 35.0545 35.353 35.6892 36.6638 36.2956C37.5412 36.702 38.4275 36.1821 38.4404 35.1538L38.4391 35.1551ZM28.368 12.8428C27.6803 12.8466 27.2326 13.2053 27.0933 13.7627C26.9553 14.3161 27.2172 14.8503 27.8145 15.1354C30.769 16.552 33.7248 17.9648 36.6896 19.3569C36.9451 19.4769 37.2883 19.5001 37.5708 19.4511C38.0508 19.3685 38.3837 18.9363 38.434 18.4679C38.4946 17.8977 38.243 17.4758 37.6263 17.1803C34.7144 15.7869 31.8012 14.3974 28.8854 13.0131C28.6867 12.9189 28.4648 12.8724 28.3693 12.8415L28.368 12.8428ZM28.3861 21.3179C27.6894 21.3063 27.2223 21.6766 27.0881 22.2533C26.9591 22.8081 27.2236 23.3177 27.8339 23.6106C30.7729 25.0195 33.7132 26.4258 36.6613 27.8166C36.8948 27.9275 37.1915 27.9791 37.447 27.952C37.976 27.8966 38.363 27.4708 38.4288 26.9702C38.5062 26.3883 38.2404 25.9445 37.6083 25.6413C34.7118 24.2557 31.8128 22.8739 28.9112 21.496C28.7112 21.4018 28.4906 21.3528 28.3848 21.3167L28.3861 21.3179ZM36.7774 10.4624H28.6918C28.6918 10.7565 28.6738 11.0288 28.7009 11.2945C28.7112 11.3939 28.8054 11.5255 28.897 11.5694C30.5819 12.3641 32.2734 13.1434 33.9609 13.933C34.8886 14.3665 35.8097 14.8129 36.7774 15.2735V10.4624ZM28.7189 28.3842C31.409 29.6615 34.0667 30.9246 36.7735 32.2096V29.3738C34.0861 28.0965 31.4283 26.8335 28.7189 25.5459V28.3842ZM36.7993 23.7512C36.7993 23.07 36.7464 22.4714 36.8122 21.8856C36.8948 21.1593 36.678 20.8019 35.9555 20.4858C33.6474 19.4769 31.3935 18.3454 29.1189 17.2629C28.995 17.2036 28.866 17.1597 28.7176 17.0991V19.9116C31.4115 21.1915 34.0616 22.4507 36.7993 23.7512Z" fill="#157B97"/>
<path d="M12.0369 41.037C10.508 41.037 8.98047 41.0293 7.45161 41.0396C6.37173 41.0473 5.57956 40.5984 5.03898 39.654C3.49851 36.9613 1.94513 34.2765 0.390466 31.5929C-0.124315 30.7053 -0.133347 29.8344 0.382725 28.9442C1.94642 26.2464 3.50367 23.5461 5.05833 20.8432C5.57827 19.9387 6.3369 19.4949 7.38968 19.5001C10.4951 19.513 13.5993 19.5143 16.7048 19.5001C17.7769 19.4949 18.5381 19.9478 19.0671 20.8728C20.5908 23.537 22.1235 26.1974 23.6717 28.8474C24.2304 29.8021 24.2368 30.7091 23.6782 31.6652C22.13 34.3152 20.5972 36.9743 19.0748 39.641C18.5252 40.6048 17.7201 41.0499 16.6222 41.0396C15.0946 41.0254 13.5658 41.0357 12.0369 41.0357V41.037ZM12.0485 20.8573C10.5042 20.8573 8.95983 20.8715 7.41549 20.8496C6.84652 20.8419 6.48398 21.0728 6.20917 21.554C4.67515 24.2312 3.13338 26.9031 1.58001 29.5699C1.29617 30.0563 1.3052 30.4847 1.58775 30.9672C3.14113 33.6327 4.68289 36.3046 6.21562 38.9831C6.4943 39.4707 6.87232 39.6888 7.42839 39.6875C10.5171 39.6798 13.6058 39.6798 16.6945 39.6875C17.2286 39.6875 17.6053 39.4862 17.8763 39.014C19.427 36.3098 20.9882 33.6108 22.5532 30.9156C22.8151 30.464 22.8073 30.0524 22.5467 29.6022C20.9804 26.907 19.4232 24.2066 17.8711 21.5024C17.6118 21.0509 17.2557 20.847 16.7319 20.8509C15.172 20.8664 13.6109 20.8561 12.0511 20.8561L12.0485 20.8573Z" fill="#157B97"/>
<path d="M12.0292 37C8.30701 36.9975 5.3009 33.9681 5.30864 30.2266C5.31638 26.5173 8.37668 23.4945 12.1027 23.5177C15.7771 23.5409 18.7987 26.5651 18.8065 30.2279C18.8155 33.9784 15.7875 37.0026 12.0292 37ZM12.1337 24.8685C9.21659 24.8091 6.72396 27.1908 6.66075 30.0976C6.59624 33.0869 8.93275 35.5847 11.8511 35.6454C14.9372 35.7099 17.386 33.3746 17.4531 30.3053C17.5163 27.3921 15.1063 24.9291 12.1337 24.8685Z" fill="#157B97"/>
</svg>
