<svg width="45" height="45" viewBox="0 0 45 45" fill="none" xmlns="http://www.w3.org/2000/svg">
<path d="M43.411 30.3674L43.6241 30.1656C44.5541 29.2877 45.0029 28.2857 44.9987 27.1002C44.9931 25.9458 44.5316 24.9282 43.6269 24.0772L43.4237 23.8852L43.6128 23.6792C43.6622 23.6256 43.7088 23.5762 43.7525 23.5282C43.8386 23.4364 43.9148 23.3546 43.9882 23.2699C44.7306 22.4076 45.065 21.4296 44.9832 20.364C44.8124 18.1356 43.1033 16.5747 40.8297 16.569C38.0198 16.562 35.1619 16.5634 32.3985 16.5648C31.23 16.5648 30.0614 16.5648 28.8943 16.5648H27.8174L27.8936 16.2204C27.9106 16.147 27.9247 16.0821 27.9374 16.0214C27.9642 15.8972 27.9868 15.7928 28.0136 15.6898C28.1321 15.241 28.2493 14.7922 28.3664 14.3434C28.6572 13.2284 28.9578 12.0768 29.2697 10.9464C29.8271 8.92536 29.8384 7.08643 29.3021 5.3237C28.4229 2.42911 26.7985 0.724244 24.3357 0.113147C22.7692 -0.276375 21.5117 0.350247 20.8865 1.83212C20.7087 2.2541 20.5647 2.70996 20.4603 3.18698C20.2966 3.93356 20.1441 4.69708 19.9959 5.4352C19.7222 6.80134 19.4399 8.21406 19.0758 9.58586C18.1034 13.2539 16.153 16.2614 13.2781 18.5209C13.1779 18.5999 13.0735 18.6747 12.9662 18.7509C12.9182 18.7848 12.8688 18.8201 12.8194 18.8568L12.5372 19.0628L12.3946 18.7438C11.792 17.389 10.9706 16.7835 9.7329 16.7779C6.89335 16.7666 4.7284 16.7666 2.71164 16.7793C1.94953 16.7849 0.92633 17.0249 0.378742 18.1454C0.154344 18.6041 0.0245031 19.2053 0.0216805 19.7953C0.00192217 24.7165 0.00474479 29.7168 0.0061561 34.5505V38.5488C0.0061561 38.7619 0.0061561 38.975 0.00333348 39.1881C-0.00090045 39.6693 -0.00372307 40.1661 0.0118013 40.6516C0.0626085 42.2196 1.16061 43.3232 2.682 43.3345C5.35079 43.3571 7.68086 43.3557 9.80629 43.3317C10.9128 43.319 11.7271 42.7855 12.2253 41.7454C12.2634 41.6649 12.3001 41.5845 12.3396 41.4956L12.5146 41.1117L12.763 41.2105C12.7954 41.2232 12.8251 41.2345 12.8533 41.2444C12.9182 41.2683 12.986 41.2923 13.0523 41.3276C14.9562 42.3381 17.0774 43.1031 19.3594 43.5984C20.106 43.7607 20.878 43.8906 21.6232 44.0162C21.9619 44.0726 22.3006 44.1305 22.6379 44.1898H39.0444C39.0585 44.1841 39.0726 44.1785 39.0867 44.1742C39.1573 44.1474 39.2377 44.1178 39.3252 44.098C41.27 43.6563 42.5713 42.0008 42.4908 40.073C42.4696 39.5832 42.3356 39.0921 42.1916 38.5727C42.1253 38.33 42.0561 38.0802 41.9983 37.8262L41.9432 37.5806L42.1803 37.4973C43.6523 36.9794 44.5654 35.9773 44.8929 34.5181C45.2217 33.0531 44.7927 31.7251 43.6185 30.5706L43.4096 30.3646L43.411 30.3674ZM10.9029 32.9261C10.9029 35.3832 10.9029 37.8403 10.9029 40.2974C10.9029 41.4292 10.5388 41.7934 9.4083 41.7934C8.25667 41.7934 7.10504 41.7934 5.95342 41.7934C4.97538 41.7934 3.99734 41.7934 3.0193 41.7934C1.95235 41.7934 1.55577 41.4052 1.55577 40.3651C1.55436 33.5005 1.55436 26.6373 1.55577 19.7727C1.55577 18.7072 1.93542 18.3289 3.00378 18.3289C5.15038 18.3289 7.29839 18.3289 9.44499 18.3289C10.5331 18.3289 10.9015 18.7043 10.9015 19.8108C10.9015 22.3187 10.9015 24.8266 10.9015 27.3345V32.9247L10.9029 32.9261ZM43.4406 33.8533C43.3094 35.1235 42.3384 36.0677 41.1345 36.1015C40.2186 36.1269 39.29 36.1241 38.3924 36.1227C37.8956 36.1227 37.4002 36.1199 36.9049 36.1227C36.7115 36.1227 36.4885 36.1298 36.2994 36.182C35.9466 36.278 35.7462 36.5814 35.7744 36.9723C35.8026 37.3491 36.0665 37.6258 36.4179 37.6455C36.8286 37.6695 37.252 37.6681 37.6627 37.6667C37.8942 37.6667 38.127 37.6667 38.3585 37.6695C39.8686 37.6921 40.9666 38.7393 40.9666 40.1576C40.9666 41.5958 39.87 42.6401 38.3571 42.6415C36.9782 42.6415 35.5994 42.6486 34.2191 42.6557C32.7147 42.6627 31.1876 42.6698 29.6521 42.6698C27.6777 42.6698 25.6906 42.6585 23.7204 42.6204C20.2062 42.5512 16.678 41.5548 13.2344 39.658C12.6656 39.3447 12.4271 38.9199 12.4356 38.2383C12.461 36.2399 12.4567 34.2076 12.4539 32.2416C12.4539 31.5303 12.4511 30.819 12.4511 30.1077V28.0994C12.4525 26.0234 12.4539 23.8754 12.444 21.7655C12.4412 21.2503 12.6035 20.9314 13.0029 20.6646C17.2397 17.8321 19.876 13.7535 21.0615 8.19713C21.2294 7.40962 21.379 6.60376 21.5244 5.82331C21.6472 5.15999 21.7756 4.47268 21.9139 3.79949C22.0042 3.36198 22.1524 2.88778 22.3655 2.34866C22.604 1.74885 23.122 1.47506 23.7853 1.59502C25.1007 1.83494 26.145 2.54624 26.8916 3.71058C28.1533 5.67935 28.461 7.93886 27.8047 10.4228C27.2444 12.5468 26.6813 14.6708 26.1168 16.7948C25.9884 17.2789 26.0011 17.6247 26.1535 17.8223C26.3045 18.0184 26.6305 18.1186 27.1231 18.1186C28.7955 18.1186 30.4665 18.1186 32.1389 18.1186C35.0278 18.1186 37.9153 18.1186 40.8029 18.1215C41.6539 18.1215 42.4202 18.4602 42.9057 19.0487C43.3686 19.6104 43.5436 20.3386 43.3969 21.1021C43.1739 22.2637 42.1577 23.0836 40.9243 23.0949C40.2017 23.102 39.4664 23.1006 38.7565 23.0991C38.048 23.0991 37.3141 23.0963 36.5944 23.1034C36.3163 23.1062 36.0821 23.2036 35.9353 23.3786C35.797 23.5437 35.7419 23.7695 35.7814 24.0151C35.8464 24.4131 36.1653 24.6417 36.6579 24.6445C37.2732 24.6488 37.8885 24.6474 38.5039 24.6459C39.3365 24.6445 40.196 24.6431 41.0442 24.653C42.1352 24.6671 43.0906 25.4137 43.3701 26.4708C43.6622 27.5772 43.212 28.7035 42.2749 29.2101C41.8458 29.443 41.3039 29.5813 40.7478 29.5996C39.9138 29.6279 39.067 29.6236 38.2484 29.6208C37.7149 29.618 37.1631 29.6166 36.6226 29.6222C36.3206 29.6265 36.0722 29.7295 35.9212 29.9144C35.7857 30.0795 35.7377 30.3053 35.7843 30.5494C35.8577 30.9333 36.1893 31.1563 36.6917 31.1605C37.4016 31.1662 38.1115 31.1662 38.8228 31.1648C39.4325 31.1648 40.0436 31.1648 40.6533 31.1676H40.6702C40.9793 31.169 41.2983 31.1718 41.6116 31.248C42.7632 31.5317 43.5676 32.6763 43.4463 33.8547L43.4406 33.8533Z" fill="#157B97"/>
<path d="M6.50243 22.6602C6.50243 22.6602 6.49114 22.6602 6.48549 22.6602C6.27662 22.6602 6.08186 22.7393 5.93367 22.8846C5.7869 23.0286 5.70645 23.2191 5.70645 23.4209C5.70645 23.8203 6.05928 24.183 6.46291 24.1957C6.66191 24.2028 6.85385 24.128 7.00203 23.9855C7.15587 23.8373 7.24055 23.6369 7.24196 23.4209C7.24196 22.9891 6.93288 22.6687 6.50384 22.6602H6.50243Z" fill="#157B97"/>
</svg>
