<svg width="70" height="70" viewBox="0 0 70 70" fill="none" xmlns="http://www.w3.org/2000/svg">
<path d="M66.4561 16.4756C65.556 16.4683 64.6559 16.4701 63.7042 16.4719C63.2606 16.4719 62.8059 16.4738 62.3347 16.4738H61.7052L62.1304 16.01C62.2279 15.9051 62.3089 15.8149 62.3826 15.734C62.5188 15.5831 62.6274 15.4634 62.7434 15.3475C63.5809 14.5083 64.4203 13.6691 65.2596 12.8318C66.434 11.6576 67.6084 10.4853 68.781 9.30935C70.4119 7.67329 70.4063 5.78878 68.7644 4.138L68.6687 4.04046C67.7299 3.09637 66.758 2.12099 65.7953 1.16953C64.2141 -0.391071 62.3365 -0.389231 60.7719 1.17138C55.5534 6.38321 50.8393 11.0926 46.0221 15.929C45.6374 16.3155 45.2379 16.4811 44.6857 16.4811H44.682C36.6675 16.4719 28.5167 16.4719 20.6347 16.4719H14.7406V11.9171C14.7406 9.1474 14.7406 6.37585 14.7406 3.60614C14.7406 2.48538 14.4074 1.56521 13.7779 0.943173C13.1557 0.334022 12.2501 0.0174835 11.1659 0.0303659C10.9377 0.0322062 10.7094 0.0340466 10.4812 0.0340466C9.40248 0.0377273 8.28516 0.041408 7.2433 0.249366C3.51765 0.994703 0.785995 3.86747 0.115966 7.74506C0.097559 7.85364 0.0552221 7.94566 0.0184074 8.02663C0.0128852 8.03952 0.00736295 8.0524 0 8.06528V61.8381C0.0331333 61.9688 0.062585 62.0994 0.0938776 62.2301C0.161985 62.5227 0.233774 62.8245 0.32397 63.1098C1.51493 66.8733 4.07539 69.1535 7.93173 69.8822C8.04402 69.9025 8.1471 69.9411 8.23914 69.9742C8.26307 69.9834 8.287 69.9908 8.31093 70H67.336C68.8233 69.5215 69.6424 68.697 69.913 67.4088C69.983 67.0739 69.9922 66.715 69.9922 66.4408C69.9958 50.9709 69.9958 35.501 69.994 20.033C69.994 17.8246 68.6705 16.4959 66.4561 16.4756ZM60.5474 3.88219C60.713 3.72208 60.8824 3.55829 61.0517 3.39082C61.453 2.99699 61.8672 2.59028 62.3034 2.20565C62.9311 1.64986 63.6932 1.66459 64.2932 2.24061C65.4511 3.35586 66.6163 4.51711 67.7575 5.69493C68.3539 6.31144 68.3668 7.09542 67.7888 7.74138C67.4133 8.16098 67.012 8.56585 66.6255 8.95416C66.4561 9.12347 66.2886 9.29278 66.1229 9.46394L65.9278 9.66453L60.3449 4.07911L60.5474 3.88403V3.88219ZM59.0067 5.58635L64.4902 11.008L62.4617 12.9146L57.1052 7.54999L59.0067 5.58635ZM55.7044 9.06274L61.0094 14.3758L47.9641 27.3999L42.6646 22.0979L55.7044 9.06274ZM46.3332 28.9053L45.7589 28.9678C45.4257 29.0046 45.0778 29.0433 44.7207 29.0838C43.8095 29.1868 42.8671 29.2936 41.9062 29.3764C41.8418 29.3819 41.781 29.3856 41.7203 29.3856C41.3742 29.3856 41.1055 29.2917 40.9177 29.104C40.695 28.8813 40.603 28.5409 40.6416 28.0918C40.7245 27.1441 40.8294 26.2147 40.9325 25.3148C40.973 24.9596 41.0116 24.6154 41.0484 24.2823L41.111 23.7118L46.3332 28.9071V28.9053ZM1.79656 41.4306C1.79656 30.7971 1.79656 20.1655 1.79656 9.53203C1.79656 4.9956 4.96815 1.82285 9.50556 1.81549C9.68227 1.81549 9.85898 1.81549 10.0357 1.81181C10.4959 1.80813 10.9726 1.80445 11.4439 1.82101C12.3182 1.85414 12.876 2.4044 12.9367 3.29512C12.9477 3.45339 12.9459 3.60798 12.9441 3.75889C12.9441 3.81778 12.9441 3.87483 12.9441 3.93372V49.6477C12.9441 50.428 12.8723 50.9838 12.5152 51.3353C12.1617 51.6831 11.5985 51.7457 10.8585 51.7365C8.61097 51.7015 6.75734 51.7531 5.04546 52.7376C4.39568 53.1112 3.7864 53.5455 3.1403 54.0056C2.8421 54.2173 2.54022 54.4326 2.22913 54.6461L1.79656 54.9424V41.4343V41.4306ZM68.1993 66.4224C68.1993 67.6701 67.6692 68.2038 66.4267 68.2038H54.9589C48.7556 68.2057 42.4621 68.2075 36.1392 68.2075C27.2816 68.2075 18.3632 68.2075 9.52765 68.2001C7.37215 68.2001 5.29764 67.3297 3.8361 65.8151C2.45922 64.3888 1.73766 62.543 1.80576 60.618C1.94014 56.8195 4.89636 53.794 8.68275 53.5824C9.2405 53.5511 9.80744 53.5529 10.3541 53.5511C10.6505 53.5511 10.9469 53.5511 11.2414 53.5455C13.43 53.5106 14.7369 52.1874 14.7388 50.0066C14.7406 42.4962 14.7406 34.9857 14.7388 27.4753V18.3141H43.607L42.7364 19.1938C42.4787 19.4551 42.2486 19.687 42.0185 19.9189C40.2121 21.7298 39.2046 23.9087 38.996 26.4558C38.9463 27.0576 38.8984 27.6575 38.8487 28.2924L38.7604 29.3985H19.2891C19.2283 29.3985 19.1657 29.3985 19.105 29.3985C18.9577 29.3985 18.8197 29.3948 18.6835 29.4022C18.0282 29.4353 17.6287 29.7923 17.6435 30.3315C17.6582 30.8689 18.03 31.1836 18.6651 31.1946C19.4253 31.2057 20.1818 31.2038 20.9826 31.202C21.3323 31.202 21.6912 31.2002 22.0575 31.2002H22.3337V36.3697C22.3337 45.1242 22.3337 53.8786 22.3337 62.6313C22.3337 62.6865 22.3337 62.7435 22.3337 62.8006C22.3318 62.992 22.3281 63.1742 22.3557 63.3435C22.4349 63.8238 22.7994 64.1183 23.2816 64.1036C23.7584 64.0852 24.0805 63.7631 24.121 63.2607C24.1339 63.1024 24.1321 62.9386 24.1302 62.7675V46.5247H37.5768V56.4588H36.5662C35.9735 56.4588 35.3642 56.4588 34.7623 56.457C33.0062 56.4533 31.1913 56.4496 29.4076 56.479C29.0468 56.4846 28.6363 56.6318 28.4302 56.8269C28.2406 57.0091 28.1669 57.2667 28.2332 57.5354C28.3068 57.8427 28.5406 58.0875 28.8443 58.1777C29.1112 58.2568 29.4334 58.2568 29.7187 58.2568C37.181 58.2623 44.6434 58.2605 52.1057 58.2605C53.9778 58.2605 54.7067 57.5262 54.7067 55.6417V38.9553C54.7085 38.8247 54.7104 38.7014 54.703 38.5781C54.6699 38.026 54.3036 37.6432 53.8103 37.6432H53.8084C53.3096 37.6432 52.9267 38.0444 52.9212 38.5726C52.9065 39.7669 52.9083 40.9816 52.912 42.1575C52.912 42.6379 52.912 43.1182 52.912 43.5967V44.6475H24.1762V31.2038H25.2715C26.7569 31.2038 28.2406 31.2075 29.7261 31.2112C33.4812 31.2186 37.3633 31.2278 41.181 31.1818C42.6296 31.1634 44.1077 30.972 45.538 30.7843C45.8086 30.7493 46.0792 30.7143 46.3516 30.6793C47.2038 30.5726 47.9788 30.1401 48.7942 29.3212C50.2852 27.825 51.7781 26.3306 53.2709 24.8363C55.2331 22.8726 57.2635 20.8409 59.2533 18.8368C59.6491 18.4374 60.0559 18.2718 60.5934 18.2773C61.8119 18.292 63.0508 18.2902 64.2509 18.2884C64.9596 18.2884 65.6683 18.2884 66.377 18.2884C67.6894 18.292 68.2011 18.7944 68.2011 20.0772C68.2011 35.5268 68.2011 50.9764 68.2011 66.4279L68.1993 66.4224ZM39.4507 56.3999V46.5228H52.8604V56.3999H39.4507Z" fill="black"/>
</svg>
