<svg width="67" height="70" viewBox="0 0 67 70" fill="none" xmlns="http://www.w3.org/2000/svg">
<path d="M20.8559 16.372C19.1609 16.255 17.4931 16.136 15.8234 16.0228C14.2707 15.9175 12.7141 15.8473 11.1653 15.699C10.824 15.6659 10.4378 15.4318 10.1959 15.1743C9.21862 14.123 8.31549 13.0033 7.33239 11.9578C6.83108 11.4253 6.65358 10.8693 6.79207 10.171C6.84278 9.91355 6.83693 9.64437 6.86229 9.2796C5.67242 9.19183 4.51961 9.1021 3.36486 9.02017C2.61192 8.96556 1.86094 8.90704 1.108 8.87583C0.524773 8.85047 0.00786255 8.75684 6.01283e-05 8.02536C-0.00579169 7.46554 0.415539 7.21976 1.2426 7.27633C2.94157 7.39142 4.64055 7.51431 6.33953 7.62939C6.52679 7.64305 6.716 7.62939 6.87204 7.62939C6.91886 7.56892 6.94812 7.54747 6.94617 7.53186C6.76281 6.13523 7.66009 5.37254 8.61393 4.61766C9.2986 4.07344 9.97351 3.50581 10.584 2.88162C11.2004 2.25157 11.8792 2.06821 12.7414 2.14234C15.2616 2.3569 17.7876 2.50905 20.3117 2.67485C20.7682 2.70411 21.2285 2.67875 21.7005 2.67875C21.7162 2.6573 21.763 2.62414 21.7688 2.58513C21.9834 1.09291 22.0595 1.05585 23.5868 1.17484C25.5276 1.32698 27.4704 1.42842 29.4113 1.56886C29.8073 1.59812 30.0589 1.52009 30.3027 1.14753C30.8489 0.308769 31.6915 -0.0618462 32.6844 0.00837558C39.8685 0.503829 47.0506 1.00904 54.2327 1.51229C56.4174 1.66444 58.6021 1.79513 60.7829 1.97849C63.8707 2.23987 66.3733 4.82637 66.2953 7.91613C66.2134 11.1717 66.0047 14.4331 65.6496 17.6692C65.3102 20.7765 62.5833 22.967 59.4526 22.9124C58.8693 22.9026 58.2861 22.8558 57.7029 22.8305C56.4955 22.7797 55.8654 23.2479 55.4733 24.3851C54.5995 26.9131 54.6404 29.4196 55.407 31.9749C56.0683 34.181 56.7081 36.4086 57.1177 38.6694C57.3927 40.183 57.2542 41.7708 57.2893 43.3255C57.3284 45.1473 57.3284 46.9712 57.4005 48.7911C57.422 49.3138 57.5936 49.8444 57.775 50.3418C58.0598 51.1279 58.5709 51.596 59.4935 51.6682C61.3915 51.8165 62.556 53.1 62.5657 54.992C62.5833 58.8113 62.5872 62.6326 62.5657 66.4538C62.5521 68.5936 61.173 69.9844 59.041 69.9883C50.6943 70.0039 42.3477 70.0039 34.003 69.9883C31.8808 69.9844 30.5192 68.5624 30.5114 66.4265C30.5017 63.3601 30.4958 60.2938 30.5114 57.2294C30.5329 53.1877 32.7761 50.7241 36.8197 50.3301C37.9549 50.2189 39.1019 50.2326 40.243 50.1877C40.4127 50.1819 40.5844 50.1779 40.7541 50.1662C43.1279 50.0121 44.0798 48.8808 43.4225 46.5947C42.1604 42.2097 40.7424 37.8677 39.3847 33.51C39.1058 32.6166 38.4953 32.1017 37.5707 31.9183C36.1877 31.6452 34.8106 31.3468 33.4334 31.0503C31.7384 30.6855 31.2371 29.9482 31.5101 28.2453C31.5336 28.101 31.5296 27.9489 31.5765 27.8123C32.3645 25.5321 31.8281 23.4039 30.8294 21.3343C30.7241 21.1159 30.5075 20.9501 30.332 20.7706C29.8697 20.2947 29.4074 19.8168 28.9295 19.3525C28.7617 19.1887 28.5628 18.9585 28.3619 18.9429C26.2767 18.7752 24.1895 18.6367 22.1004 18.504C20.9359 18.4299 20.7818 18.2621 20.8598 17.0742C20.8735 16.8597 20.8618 16.6431 20.8618 16.3701L20.8559 16.372ZM60.9682 59.9134C60.9682 58.2457 60.9799 56.6442 60.9643 55.0447C60.9526 53.9309 60.3967 53.3204 59.2809 53.258C57.8784 53.1819 56.9285 52.4641 56.4389 51.2157C56.1073 50.3672 55.9571 49.4426 55.7737 48.5433C55.6996 48.1786 55.6391 47.9406 55.1983 47.8606C53.0682 47.4764 51.8374 46.1695 51.3888 44.0706C50.5383 40.1031 49.6527 36.1453 48.8276 32.1739C48.6735 31.4268 48.5818 30.6056 48.7262 29.8702C49.1319 27.8201 50.472 26.6107 52.5162 26.2421C53.1755 26.1231 53.5325 25.8656 53.6164 25.1751C53.6729 24.6991 53.8543 24.2349 54.0026 23.7726C54.5429 22.0931 55.8791 21.1627 57.6444 21.229C58.2529 21.2524 58.8596 21.3109 59.4662 21.3207C60.6346 21.3382 61.6763 21.0105 62.6594 20.1074C56.946 19.7095 51.3927 19.2999 45.8373 18.9429C42.97 18.7595 41.2105 16.9201 41.3451 14.0449C41.4329 12.1743 41.5772 10.3056 41.745 8.44084C41.9712 5.91091 43.9004 4.19828 46.4284 4.35432C50.8953 4.62741 55.3563 4.96681 59.8212 5.27696C61.1398 5.36864 62.4585 5.45252 63.9663 5.55395C63.0651 4.34067 62.0469 3.69697 60.7556 3.59164C57.5312 3.32831 54.3049 3.10594 51.0786 2.88162C45.0142 2.45834 38.9478 2.04676 32.8814 1.62348C31.8632 1.55326 31.4692 1.89071 31.397 2.92453C31.2254 5.39985 31.04 7.87322 30.8703 10.3485C30.6928 12.9214 30.5309 15.4942 30.3534 18.0651C30.3144 18.6269 30.4295 19.1809 31.0127 19.2901C31.7774 19.4345 32.0329 19.9377 32.2494 20.5522C32.3938 20.9637 32.6064 21.3578 32.7098 21.7791C32.858 22.3838 33.2169 22.6081 33.8158 22.7095C36.7631 23.2089 38.1754 25.296 37.6136 28.2414C37.4927 28.8773 37.3951 29.5171 37.321 29.9638C38.3158 30.5178 39.3555 30.8455 40.0206 31.536C40.6916 32.2304 40.9901 33.2857 41.4543 34.1888C43.362 33.8728 44.6202 34.5243 45.1956 36.2097C45.9797 38.5075 46.7405 40.8131 47.4798 43.1265C47.9986 44.7514 47.2964 46.2533 45.7223 46.8678C45.2736 47.0433 45.1663 47.2462 45.1839 47.7104C45.2522 49.6259 44.3315 50.9309 42.4764 51.4439C41.6669 51.6682 40.8028 51.715 39.9582 51.7833C38.9654 51.8633 37.9608 51.8126 36.9757 51.9374C35.1968 52.1617 33.6305 52.8249 32.7156 54.5005C31.7754 56.2229 32.187 58.0798 32.1207 59.9134H60.9701H60.9682ZM64.6665 7.24902C64.3037 7.21001 63.9916 7.16515 63.6776 7.14174C60.7692 6.93693 57.8589 6.73796 54.9506 6.53705C52.1632 6.34394 49.3757 6.14303 46.5864 5.95967C44.6884 5.83483 43.4966 6.80429 43.323 8.67882C43.1514 10.5416 43.0226 12.4103 42.9387 14.279C42.8588 16.0677 43.9609 17.2108 45.7359 17.3278C51.3849 17.7043 57.0338 18.0905 62.6828 18.4767C63.9273 18.5625 64.0053 18.5001 64.1145 17.2264C64.1184 17.1776 64.1204 17.1288 64.1243 17.0801C64.3037 14.5833 64.4968 12.0885 64.6568 9.58975C64.7056 8.82121 64.6646 8.04877 64.6646 7.24902H64.6665ZM32.1226 61.5734C32.1226 63.3699 32.0992 65.0942 32.1343 66.8166C32.1499 67.5559 32.6942 68.1157 33.4217 68.3069C34.4029 68.5644 34.9042 68.4259 35.3958 67.7627C35.9595 67 36.5583 66.2607 37.0752 65.4687C37.4673 64.8699 37.951 64.6612 38.6572 64.6651C42.9368 64.6885 47.2164 64.6592 51.496 64.6826C54.3732 64.6983 53.6086 64.236 55.1788 66.5806C56.1443 68.024 57.2191 68.7224 58.922 68.3888C58.9688 68.3791 59.0195 68.3888 59.0683 68.3868C60.2523 68.3381 60.9194 67.7002 60.9623 66.524C60.9916 65.7223 60.9701 64.9187 60.9721 64.117C60.9721 63.2782 60.9721 62.4395 60.9721 61.5734H32.1226ZM21.6849 4.36213L12.5425 3.75939C12.3103 7.27048 12.0841 10.684 11.8519 14.1659C14.9319 14.3648 17.9456 14.5599 20.9983 14.7569C21.2305 11.2341 21.4548 7.84591 21.6849 4.36018V4.36213ZM22.9977 8.9597C23.2727 8.98116 23.4639 8.99677 23.6531 9.01042C24.8176 9.09625 25.9802 9.17427 27.1447 9.2679C27.6675 9.30886 27.9503 9.6073 27.9054 10.1359C27.8625 10.6392 27.5095 10.8303 27.0491 10.8498C26.8814 10.8576 26.7117 10.8167 26.54 10.8069C25.3384 10.7328 24.1349 10.6606 22.8709 10.5846C22.8338 11.2556 22.8046 11.8251 22.7695 12.4493C23.1128 12.4727 23.3742 12.4883 23.6355 12.5079C24.7747 12.5898 25.9217 12.6288 27.0491 12.7907C27.3183 12.8297 27.7143 13.2764 27.7143 13.5358C27.7143 13.7972 27.3163 14.0859 27.0472 14.3063C26.9496 14.3863 26.7195 14.3102 26.5498 14.3005C25.2721 14.2263 23.9925 14.1483 22.6524 14.0683C22.5881 15.0553 22.5276 15.9643 22.4652 16.9318C24.6089 17.0742 26.6609 17.2088 28.7832 17.3493C29.1128 12.5995 29.4366 7.93369 29.7644 3.19566C27.607 3.05717 25.5159 2.92258 23.4034 2.78604C23.343 3.6404 23.2903 4.38163 23.2357 5.17358C23.46 5.19309 23.6238 5.20869 23.7877 5.22039C24.9756 5.30817 26.1635 5.39985 27.3515 5.47787C27.8957 5.51298 28.2507 5.75096 28.2175 6.32639C28.1844 6.90377 27.7825 7.09688 27.2539 7.07542C27.0355 7.06762 26.8189 7.03641 26.6005 7.0208C25.4652 6.94668 24.3319 6.87451 23.1342 6.79843C23.0874 7.53576 23.0445 8.20677 22.9958 8.95775L22.9977 8.9597ZM55.7425 46.2806C55.7425 44.8684 55.8108 43.5049 55.725 42.1532C55.6099 40.343 55.5319 38.5055 55.1534 36.7402C54.5136 33.7461 53.1014 30.9294 53.1716 27.7752C51.1313 28.0152 49.9005 29.4508 50.273 31.2707C51.1547 35.5718 52.0968 39.8612 53.0546 44.1467C53.3296 45.3756 54.3088 46.1382 55.7425 46.2806ZM36.9699 68.3381H54.5468C54.0923 67.7217 53.7373 67.1755 53.3101 66.6918C53.1307 66.4889 52.803 66.3036 52.5396 66.3017C48.0201 66.2782 43.5005 66.2821 38.981 66.2938C38.7625 66.2938 38.4641 66.3582 38.3373 66.5084C37.873 67.0604 37.4673 67.6612 36.9679 68.3381H36.9699ZM44.8679 45.4497C45.8861 45.1142 46.2489 44.5134 45.9466 43.5712C45.2034 41.2637 44.4407 38.962 43.6585 36.6681C43.3776 35.8429 42.8354 35.5991 41.8854 35.8098C42.8802 39.0263 43.8731 42.237 44.8679 45.4497ZM33.648 24.3539C33.5524 25.2629 33.4842 26.1055 33.371 26.9443C33.2891 27.5451 33.1077 28.1342 33.0589 28.7349C33.0414 28.9476 33.2384 29.3279 33.412 29.3806C34.1435 29.5971 34.9022 29.7181 35.7039 29.8858C35.8658 28.9046 36.0629 28.0249 36.1448 27.1354C36.2833 25.6569 35.0993 24.387 33.648 24.3539ZM10.8493 5.03899C8.09507 6.03185 8.55347 8.39793 8.37401 10.4909C8.97285 11.2653 9.57363 12.0378 10.1725 12.8122L10.3461 12.6834C10.5138 10.1242 10.6835 7.56307 10.8493 5.03899Z" fill="black"/>
<path d="M35.7839 8.62029C35.6357 10.8264 35.4874 13.0326 35.3333 15.2387C35.2943 15.7907 35.0642 16.2023 34.4419 16.1516C33.8606 16.1028 33.6987 15.6854 33.7358 15.1587C33.9035 12.6854 34.0693 10.2139 34.241 7.74057C34.28 7.16904 34.4887 6.7126 35.1675 6.79647C35.8112 6.87645 35.8717 7.36605 35.8268 7.89271C35.8073 8.13459 35.7976 8.37841 35.7839 8.62029Z" fill="black"/>
</svg>
