<svg width="70" height="70" viewBox="0 0 70 70" fill="none" xmlns="http://www.w3.org/2000/svg">
<path d="M35.0351 0C45.3627 0 55.6922 0 66.0198 0C68.644 0 70 1.36766 70 4.01141C70 17.6685 70 31.3276 70 44.9847C70 47.6207 68.6323 48.9981 66.0198 48.9981C64.7067 48.9981 63.3955 49.0039 62.0824 48.9981C61.2057 48.9922 60.6913 48.5694 60.6719 47.8622C60.6524 47.1316 61.1901 46.6719 62.0941 46.668C63.4793 46.6621 64.8645 46.6719 66.2497 46.6641C67.2433 46.6582 67.6621 46.2374 67.6621 45.2341C67.666 31.4055 67.666 17.5789 67.6621 3.75035C67.6621 2.69635 67.2257 2.33203 66.0178 2.33203C48.4233 2.33203 30.8288 2.33203 13.2343 2.33203C10.123 2.33203 7.01364 2.33203 3.90231 2.33203C2.70804 2.33203 2.33203 2.7061 2.33203 3.89647C2.33203 17.6276 2.33203 31.3568 2.33203 45.088C2.33203 46.2842 2.70804 46.6621 3.89257 46.6641C7.92736 46.666 11.9602 46.6504 15.995 46.6875C16.4256 46.6913 16.9769 46.892 17.2574 47.1998C17.8263 47.8233 17.3724 48.8169 16.5171 48.9747C16.3048 49.0136 16.0807 48.9981 15.8625 48.9981C11.853 48.9981 7.84359 49.002 3.83217 48.9981C1.42026 48.9981 0 47.5661 0 45.1328C0 31.3782 0 17.6237 0 3.86919C0 1.40468 1.41831 0 3.90426 0C14.2805 0 24.6588 0 35.0351 0Z" fill="black"/>
<path d="M19.4414 33.2485C20.1681 36.0754 20.9922 38.8478 21.5786 41.6688C22.5391 46.2881 24.4893 50.4534 27.1097 54.3206C27.8325 55.3883 28.8163 56.2883 29.7261 57.2196C30.2015 57.7067 30.3671 58.332 30.0067 58.8464C29.6424 59.3685 28.9546 59.5497 28.4013 59.123C27.6766 58.5639 26.9324 57.9697 26.3888 57.2469C23.4976 53.3991 21.1227 49.2825 19.9499 44.5502C19.0109 40.759 17.9978 36.9853 17.0217 33.2018C16.7743 32.2433 16.934 31.8809 17.7854 31.4114C21.1559 29.5566 24.2847 30.5074 26.0284 33.9382C26.6635 35.189 27.2519 36.4631 27.9981 37.7217C27.9981 37.4743 27.9981 37.2268 27.9981 36.9814C27.9981 30.1275 27.9903 23.2736 28.002 16.4197C28.0059 13.848 29.9249 11.8004 32.3952 11.6758C35.0818 11.5413 37.3048 13.6065 37.3242 16.3165C37.3515 20.1077 37.332 23.899 37.332 27.6922C37.332 27.9591 37.332 28.226 37.332 28.5708C39.8862 27.4584 41.9922 27.9981 43.6794 30.2171C44.9457 29.2956 46.3329 28.9118 47.8661 29.3287C49.3994 29.7456 50.4281 30.7529 51.0749 32.2433C52.2302 31.6159 53.4167 31.3178 54.7142 31.6257C56.7403 32.1069 58.3009 33.87 58.3126 35.9488C58.3476 42.7053 58.3632 49.4617 58.3028 56.2182C58.2853 58.1275 57.2177 59.499 55.4584 60.2783C54.7142 60.6076 54.081 60.3952 53.7829 59.7698C53.4868 59.1483 53.7342 58.5269 54.4784 58.1781C55.5519 57.6774 56.0059 56.8475 56.0039 55.6785C55.9903 49.2611 56 42.8455 55.9961 36.4281C55.9961 34.9474 55.1038 33.907 53.7946 33.8369C52.4679 33.7648 51.5054 34.6727 51.3281 36.1611C51.2405 36.8976 50.7417 37.3671 50.093 37.3242C49.4637 37.2833 49.0234 36.806 49.0039 36.093C48.9825 35.3409 49.0136 34.585 48.9922 33.833C48.9591 32.5452 47.9869 31.5458 46.7517 31.501C45.5029 31.4562 44.4821 32.364 44.3359 33.6518C44.2346 34.548 43.808 35.0175 43.1222 34.9922C42.4052 34.9649 42.0039 34.435 41.9961 33.4979C41.9942 33.2057 42.0039 32.9134 41.9922 32.6232C41.9396 31.3763 40.9869 30.3944 39.781 30.3359C38.5322 30.2755 37.4898 31.1795 37.3379 32.4556C37.3184 32.6232 37.332 32.8024 37.2814 32.9602C37.106 33.5018 36.73 33.8291 36.1514 33.8194C35.5416 33.8096 35.1578 33.457 35.0253 32.8686C34.9727 32.6368 34.9981 32.3855 34.9981 32.1419C34.9981 26.9168 35.0039 21.6916 34.9922 16.4645C34.9883 14.6877 33.381 13.5285 31.8127 14.1656C30.8678 14.5494 30.3574 15.2878 30.3359 16.3106C30.3106 17.501 30.3281 18.6933 30.3281 19.8837C30.3281 27.3454 30.3281 34.8071 30.3281 42.2689C30.3281 42.4384 30.3281 42.6098 30.3281 42.7793C30.3242 43.6872 30.0398 44.1781 29.3969 44.2989C28.6312 44.4431 28.2474 43.9852 27.9552 43.356C27.248 41.8383 26.5174 40.3323 25.7907 38.8224C25.1166 37.4236 24.4873 35.9994 23.747 34.6357C22.7768 32.855 21.2903 32.3894 19.4375 33.2466L19.4414 33.2485Z" fill="black"/>
<path d="M56 63.0253H30.3671C30.3554 63.2747 30.334 63.5085 30.334 63.7422C30.3301 65.3943 30.3418 67.0464 30.3281 68.6966C30.3223 69.4895 29.8391 70 29.1553 69.9941C28.4968 69.9883 28.0117 69.4954 28.0058 68.7492C27.9903 66.4659 27.9903 64.1825 28.0058 61.8992C28.0117 61.1277 28.4656 60.7069 29.243 60.6679C29.3891 60.6601 29.5352 60.666 29.6794 60.666C38.6666 60.666 47.6538 60.666 56.639 60.666C57.9872 60.666 58.3281 61.003 58.3301 62.3278C58.3301 64.3189 58.3301 66.312 58.3301 68.3031C58.3301 69.4311 57.956 69.9805 57.1806 69.9922C56.3838 70.0058 55.9961 69.4408 55.9961 68.266C55.9961 66.5438 55.9961 64.8216 55.9961 63.0233L56 63.0253Z" fill="black"/>
<path d="M32.6875 7C37.5269 7.00585 41.6026 10.7815 41.9805 15.6092C42.074 16.8074 41.7097 17.4445 40.8993 17.4932C40.1239 17.5399 39.7381 17.0217 39.6504 15.8138C39.3855 12.1531 36.2664 9.29697 32.5745 9.33593C28.9352 9.3749 25.8764 12.2992 25.6797 15.9268C25.6719 16.0729 25.6777 16.219 25.6621 16.3632C25.5881 17.0529 25.0991 17.5127 24.4679 17.4932C23.8366 17.4737 23.3476 16.9925 23.3437 16.297C23.334 14.4228 23.8756 12.7083 24.914 11.1517C26.6499 8.55274 29.5664 6.99416 32.6875 6.99805V7Z" fill="black"/>
<path d="M46.6855 16.9282C46.5803 17.5769 46.4225 18.7517 46.1906 19.9129C46.0348 20.6999 45.423 21.1052 44.784 20.9571C44.0846 20.7954 43.7281 20.1817 43.9268 19.3654C44.9555 15.1183 43.9541 11.4069 41.02 8.19229C40.4336 7.55132 40.4278 6.87918 40.9655 6.39796C41.4681 5.94987 42.1442 6.01221 42.7033 6.59474C45.3276 9.332 46.5978 12.6187 46.6835 16.9301L46.6855 16.9282Z" fill="black"/>
<path d="M18.6504 16.5424C18.7537 12.5641 20.0161 9.29306 22.6501 6.60645C22.9365 6.31616 23.5268 6.12913 23.9223 6.20122C24.2399 6.25772 24.6627 6.76036 24.6958 7.09741C24.7328 7.48121 24.4776 7.9819 24.197 8.29167C22.6969 9.94962 21.6897 11.8433 21.2377 14.0351C20.8889 15.7261 20.9357 17.4075 21.3253 19.0829C21.3526 19.2018 21.3974 19.3148 21.4189 19.4336C21.5474 20.1759 21.2182 20.7331 20.5636 20.8928C19.9168 21.0506 19.3459 20.6961 19.1492 19.9713C19.0167 19.4823 18.9056 18.9816 18.8394 18.479C18.7439 17.7601 18.6991 17.0334 18.6543 16.5405L18.6504 16.5424Z" fill="black"/>
<path d="M65.332 24.5049C65.332 25.2589 65.3496 26.0109 65.3262 26.7648C65.3048 27.5071 64.8197 27.9981 64.1592 27.9942C63.4988 27.9903 63.0136 27.4993 63.0058 26.7531C62.9883 25.2472 62.9864 23.7392 63.0058 22.2332C63.0156 21.491 63.5085 21.002 64.1709 21.0039C64.8333 21.0078 65.3067 21.4949 65.3262 22.243C65.3476 22.995 65.3301 23.749 65.3301 24.5029L65.332 24.5049Z" fill="black"/>
</svg>
