<svg width="70" height="70" viewBox="0 0 70 70" fill="none" xmlns="http://www.w3.org/2000/svg">
<path d="M68.5536 0H1.41414C0.172966 0 0 0.172971 0 1.42939V48.0327C0 53.4328 0 58.8329 0 64.233C0 65.1929 0.247095 65.4419 1.20506 65.4457C1.63653 65.4476 2.06609 65.4457 2.50896 65.4457H3.41371V66.7307C3.41371 67.4454 3.41181 68.1258 3.41371 68.8082C3.41751 69.7301 3.67791 69.9962 4.57125 69.9962C24.8653 69.9962 45.1594 69.9962 65.4535 69.9962C66.3031 69.9962 66.5768 69.7168 66.5825 68.8481C66.5863 68.1486 66.5863 67.4492 66.5844 66.725V65.4457H68.5383C69.8327 65.4457 69.9962 65.2823 69.9962 63.9878V1.4693C69.9962 0.163467 69.8346 0 68.5497 0H68.5536ZM29.0583 1.76202H47.7558V63.7084H29.0583V1.76202ZM22.3868 31.4066C22.0884 31.7088 21.6303 31.8685 21.0639 31.8685C18.8666 31.8685 16.6694 31.8704 14.4721 31.8704C12.2749 31.8704 10.1404 31.8704 7.97545 31.8685C6.92815 31.8685 6.2724 31.3267 6.2629 30.4581C6.2591 30.0703 6.38835 29.7358 6.63354 29.4868C6.93195 29.1865 7.38813 29.0249 7.95455 29.0249C9.52645 29.0211 11.1002 29.0211 12.6722 29.023H16.4375C17.9733 29.023 19.5091 29.023 21.043 29.023C22.0903 29.0249 22.746 29.5647 22.7555 30.4315C22.7593 30.8192 22.6301 31.1538 22.3849 31.4047L22.3868 31.4066ZM22.7574 34.9991C22.7574 35.8753 22.1074 36.4208 21.0563 36.4227C20.1306 36.4246 19.2069 36.4246 18.2812 36.4246C17.654 36.4246 17.0248 36.4246 16.3976 36.4246H12.6265C11.0736 36.4246 9.52075 36.4246 7.96785 36.4227C6.91865 36.4208 6.2667 35.8753 6.2648 35.0009C6.2648 34.5619 6.43016 34.1969 6.74188 33.9441C7.0422 33.7027 7.45275 33.5792 7.96595 33.5792C12.3281 33.5754 16.6922 33.5754 21.0544 33.5792C22.1036 33.5792 22.7574 34.1247 22.7593 34.9991H22.7574ZM21.1114 27.3161C19.5547 27.3199 17.998 27.3199 16.4413 27.3199H12.6341C12.0088 27.3199 11.3816 27.3199 10.7562 27.3199C9.79635 27.3199 8.83838 27.3199 7.87852 27.3161C7.33301 27.3142 6.86923 27.1241 6.57272 26.7801C6.31992 26.4874 6.21348 26.1034 6.2724 25.6985C6.38645 24.923 6.98137 24.4763 7.90703 24.4763C10.1613 24.4725 12.4156 24.4725 14.6679 24.4744H18.2698C19.2259 24.4725 20.1819 24.4706 21.1399 24.4782C21.6626 24.482 22.0922 24.6417 22.383 24.9382C22.632 25.1929 22.7612 25.5313 22.7555 25.9152C22.7441 26.7649 22.0979 27.3161 21.1095 27.318L21.1114 27.3161ZM27.2773 38.1619V50.0266H1.75817V38.1619H27.2792H27.2773ZM27.2697 36.3847H24.202L24.3084 36.0198C24.6448 34.866 24.4358 33.8529 23.6717 32.9234L23.5291 32.7504L23.6622 32.5718C24.7247 31.15 24.7285 29.7719 23.6755 28.3596L23.5595 28.2038L23.7686 27.8711C23.8484 27.7438 23.9321 27.6126 24.0119 27.4777C24.5859 26.5121 24.6011 25.3013 24.0499 24.3167C23.5272 23.3815 22.5901 22.8132 21.5428 22.796C16.9526 22.7219 12.2198 22.7219 7.47176 22.796C6.43586 22.8113 5.50261 23.372 4.97611 24.2939C4.41539 25.2766 4.41159 26.4436 4.9666 27.4187C5.03883 27.5461 5.12436 27.6734 5.2156 27.8084C5.26121 27.8768 5.30873 27.9491 5.35815 28.0232L5.46269 28.1848L5.35245 28.3425C4.28994 29.8498 4.27284 31.0074 5.29163 32.4691L5.38096 32.5984L5.31824 32.7428C5.23841 32.9291 5.15287 33.1078 5.06924 33.2826C4.88677 33.6647 4.7138 34.0259 4.63397 34.3965C4.55985 34.7443 4.57695 35.1302 4.59596 35.5389C4.60546 35.7327 4.61497 35.9342 4.61497 36.1395V36.4246H1.74107V8.58772H27.2716V36.3847H27.2697ZM1.73917 1.74301H27.2602V6.78008H1.73917V1.74301ZM1.73917 63.6913V51.8266H27.2602V63.6913H1.73917ZM64.8452 68.2589H5.17758V65.4932H64.8433V68.2589H64.8452ZM68.2475 63.7065H49.5482V1.76202H68.2475V63.7084V63.7065Z" fill="black"/>
<path d="M44.9104 30.7888H43.2891V34.6816H44.9104V30.7888Z" fill="black"/>
<path d="M65.4097 30.7642H63.7903V34.657H65.4097V30.7642Z" fill="black"/>
<path d="M16.4774 41.0322H12.5581V42.6403H16.4774V41.0322Z" fill="black"/>
<path d="M16.4698 54.6855H12.5771V56.3069H16.4698V54.6855Z" fill="black"/>
</svg>
