<svg width="82" height="57" viewBox="0 0 82 57" fill="none" xmlns="http://www.w3.org/2000/svg">
<path d="M0 21.8898C0.308112 20.2979 0.50924 18.6761 0.943592 17.1184C3.87921 6.57627 13.9848 -0.585182 24.8821 0.0609964C28.6822 0.285661 32.2084 1.36191 35.6083 3.33896C36.3529 2.57082 37.0996 1.77915 37.8699 1.01101C39.2158 -0.330562 40.7392 -0.339121 42.0829 0.998169C44.9779 3.8803 47.8664 6.7667 50.7443 9.66381C52.0495 10.9776 52.0388 12.5031 50.7357 13.8212C49.4776 15.0921 48.2195 16.3631 46.9378 17.6105C46.5997 17.94 46.5141 18.2267 46.5783 18.7167C46.8051 20.4584 47.0533 22.2108 47.0747 23.9632C47.1368 29.2738 47.0983 34.5866 47.0983 39.8972V40.8622C47.5155 40.8622 47.8536 40.8622 48.1916 40.8622C58.8942 40.8622 69.599 40.8622 80.3016 40.8622C81.8229 40.8622 81.9962 41.0377 81.9962 42.5675C81.9962 46.7057 81.9962 50.8416 81.9962 54.9797C81.9962 55.1937 82.009 55.4077 81.9876 55.6195C81.9277 56.21 81.5961 56.5781 81.0034 56.561C80.4128 56.5438 80.0833 56.1715 80.079 55.5681C80.0705 54.2865 80.0748 53.0048 80.0748 51.7253C80.0748 51.3808 80.0748 51.0342 80.0748 50.5613H79.0413C55.2846 50.5613 31.5301 50.5613 7.7734 50.5613C3.60747 50.5613 1.11904 48.6035 0.106983 44.5296C0.0877262 44.4547 0.0385139 44.3863 0.00213966 44.3135C0.00213966 36.8397 0.00213966 29.3658 0.00213966 21.8898H0ZM23.425 48.6378C28.8427 48.6378 34.2581 48.6442 39.6758 48.6356C42.9281 48.6292 45.164 46.3911 45.1662 43.1645C45.1704 36.7348 45.1662 30.303 45.179 23.8733C45.1833 21.7807 44.9394 19.7288 44.3552 17.7154C41.2741 7.08337 31.0016 0.514605 20.0914 2.20708C9.77398 3.80755 2.01556 12.8647 1.94067 23.4689C1.89574 30.0056 1.92784 36.5444 1.93212 43.0811C1.93426 46.4596 4.11243 48.6335 7.49524 48.6356C12.8059 48.6399 18.1144 48.6356 23.425 48.6356V48.6378ZM47.0961 42.8179C47.2566 45.056 46.512 46.9496 44.9843 48.5928H49.4241C49.4241 47.9916 49.4241 47.4374 49.4241 46.8811C49.4219 46.2499 49.6145 45.7621 50.3356 45.7107C50.9561 45.6658 51.3155 46.083 51.3391 46.8726C51.3562 47.446 51.3434 48.0194 51.3434 48.5886H53.6949C53.819 47.8397 53.483 46.7934 54.6256 46.7313C55.9779 46.6564 55.4879 47.9146 55.7425 48.5843H58.0491C58.0491 47.998 58.0491 47.4652 58.0491 46.9346C58.0491 46.2799 58.2267 45.7514 58.9969 45.7107C59.6132 45.6786 59.9469 46.0959 59.9641 46.9004C59.9769 47.4545 59.9662 48.0087 59.9662 48.58H62.3177C62.4418 47.8119 62.1273 46.7741 63.2784 46.7313C64.5772 46.6821 64.1642 47.8504 64.3333 48.5779H66.6762C66.6762 47.9295 66.6591 47.3433 66.6805 46.7591C66.704 46.1515 66.9779 45.7129 67.6412 45.715C68.3002 45.715 68.5848 46.1279 68.5891 46.757C68.5933 47.3625 68.5891 47.9681 68.5891 48.5779H70.9448C71.0518 47.0887 71.2401 46.695 71.9141 46.7164C73.2193 46.7549 72.7956 47.8568 72.9475 48.58H75.3033C75.3033 47.9338 75.2883 47.3476 75.3076 46.7613C75.329 46.1515 75.6071 45.7171 76.2683 45.7171C76.923 45.7171 77.2162 46.1215 77.2205 46.7527C77.2247 47.3583 77.2205 47.9638 77.2205 48.595H80.0127V42.8179H47.0961ZM37.1809 4.32963C41.2912 7.35083 44.1734 11.1744 45.8787 15.948C47.1304 14.6984 48.32 13.5195 49.499 12.332C49.9205 11.9062 49.8477 11.4782 49.4433 11.0738C46.5056 8.13609 43.57 5.19405 40.6301 2.25843C40.2257 1.85403 39.7935 1.8198 39.3655 2.22848C38.6552 2.90675 37.9469 3.59144 37.1809 4.32963Z" fill="black"/>
<path d="M23.5299 7.706C32.1121 7.68033 39.1023 14.6599 39.1088 23.2678C39.1152 31.8307 32.1805 38.8103 23.624 38.8509C15.0525 38.8916 8.01304 31.8949 8.0002 23.3213C7.98736 14.7113 14.9263 7.73168 23.5299 7.706ZM23.5192 9.62742C15.9512 9.66166 9.8831 15.8025 9.92162 23.3919C9.96013 30.8507 16.1224 36.9531 23.5962 36.9295C31.115 36.906 37.2087 30.7673 37.1873 23.2357C37.166 15.7019 31.0294 9.59319 23.5192 9.62742Z" fill="black"/>
<path d="M10.3153 47.0523C8.3511 47.0395 6.76134 45.4112 6.79985 43.4555C6.83836 41.5106 8.40674 39.9722 10.3496 39.9722C12.3202 39.9722 13.9249 41.5726 13.9142 43.5283C13.9035 45.4861 12.2902 47.0652 10.3175 47.0523H10.3153ZM10.3795 41.8979C9.47229 41.8829 8.7448 42.5826 8.72983 43.4834C8.71485 44.382 9.42522 45.1138 10.3239 45.1266C11.2183 45.1395 11.9671 44.4227 11.9843 43.5368C12.0035 42.6596 11.2696 41.9086 10.3795 41.8957V41.8979Z" fill="black"/>
<path d="M36.7937 47.0501C34.823 47.0608 33.2119 45.4753 33.2054 43.5175C33.199 41.5662 34.8102 39.9657 36.7765 39.97C38.7108 39.9743 40.292 41.5298 40.3284 43.4619C40.3648 45.4047 38.7536 47.0394 36.7937 47.0501ZM36.7787 45.1266C37.6666 45.1202 38.407 44.3734 38.3984 43.4961C38.3898 42.6125 37.6452 41.8893 36.7509 41.8935C35.8565 41.9 35.1247 42.636 35.1333 43.5218C35.1418 44.4119 35.88 45.1308 36.7765 45.1244L36.7787 45.1266Z" fill="black"/>
<path d="M33.8238 23.2849C33.8195 28.9507 29.2064 33.5638 23.547 33.5617C17.9004 33.5574 13.2809 28.9208 13.2852 23.2635C13.2916 17.5998 17.9133 12.9824 23.5684 12.9931C29.2406 13.0038 33.8259 17.6062 33.8238 23.2849ZM31.9024 23.2485C31.8895 18.6311 28.128 14.8889 23.532 14.9167C18.9146 14.9466 15.198 18.691 15.2109 23.302C15.2237 27.9002 19.0002 31.6574 23.5876 31.6403C28.1901 31.621 31.9152 27.8616 31.9024 23.2485Z" fill="black"/>
</svg>
