<svg width="25" height="25" viewBox="0 0 25 25" fill="none" xmlns="http://www.w3.org/2000/svg">
<path d="M10.1738 0C10.7447 0.0810331 11.3229 0.129391 11.886 0.248327C15.7186 1.0567 18.7562 4.21176 19.4206 8.08109C19.8955 10.846 19.2952 13.3691 17.647 15.6413C17.6137 15.6871 17.583 15.7341 17.4811 15.8596C17.5725 15.9145 17.679 15.9537 17.7522 16.0269C20.0314 18.3011 22.3053 20.5798 24.5845 22.8539C24.9236 23.1918 25.0719 23.5865 24.9667 24.0524C24.8635 24.5092 24.5734 24.8157 24.1207 24.9464C23.6667 25.0778 23.2643 24.9654 22.9312 24.634C21.995 23.7028 21.0635 22.767 20.13 21.8332C18.753 20.4556 17.3759 19.0781 15.9982 17.7005C15.9414 17.6436 15.8819 17.5901 15.8394 17.5502C15.3547 17.8528 14.9007 18.173 14.4147 18.4337C8.66413 21.5169 1.55479 18.2017 0.209091 11.8158C-0.869428 6.70156 2.32889 1.5723 7.39421 0.318251C7.95992 0.178403 8.54916 0.132659 9.12794 0.0431305C9.21613 0.0294072 9.30366 0.0143768 9.3912 0L10.1738 0ZM17.1544 9.82068C17.1701 5.78798 13.8692 2.46105 9.83737 2.44406C5.74801 2.42707 2.44517 5.70172 2.42557 9.79324C2.40598 13.8259 5.70098 17.1509 9.73742 17.1712C13.8163 17.1921 17.1388 13.8991 17.1544 9.82068Z" fill="#5CC9E6"/>
</svg>
