<svg width="30" height="30" viewBox="0 0 30 30" fill="none" xmlns="http://www.w3.org/2000/svg">
<path d="M15 30C23.2843 30 30 23.2843 30 15C30 6.71573 23.2843 0 15 0C6.71573 0 0 6.71573 0 15C0 23.2843 6.71573 30 15 30Z" fill="#039BE5"/>
<path d="M6.86377 14.675L21.3263 9.09877C21.9975 8.85627 22.5838 9.26252 22.3663 10.2775L22.3675 10.2763L19.905 21.8775C19.7225 22.7 19.2338 22.9 18.55 22.5125L14.8 19.7488L12.9913 21.4913C12.7913 21.6913 12.6225 21.86 12.235 21.86L12.5013 18.0438L19.4513 11.765C19.7538 11.4988 19.3838 11.3488 18.985 11.6138L10.3963 17.0213L6.69377 15.8663C5.89002 15.6113 5.87252 15.0625 6.86377 14.675Z" fill="white"/>
</svg>
