<svg width="30" height="30" viewBox="0 0 30 30" fill="none" xmlns="http://www.w3.org/2000/svg">
<path d="M25.65 4.31125C22.8 1.55625 19.05 0 15.0562 0C3.59375 0 -3.60375 12.4187 2.12 22.2975L0 30L7.91875 27.935C11.3687 29.7987 14.195 29.6338 15.0637 29.7437C28.355 29.7437 34.9712 13.6637 25.6312 4.36L25.65 4.31125Z" fill="#ECEFF1"/>
<path d="M15.0837 27.1888L15.0762 27.1875H15.0562C11.0787 27.1875 8.53748 25.3038 8.28748 25.195L3.59998 26.4138L4.85623 21.8575L4.55748 21.3888C3.31998 19.4188 2.66248 17.15 2.66248 14.8138C2.66248 3.82252 16.0937 -1.67373 23.8662 6.09502C31.62 13.7825 26.1762 27.1888 15.0837 27.1888Z" fill="#4CAF50"/>
<path d="M21.8838 17.8837L21.8726 17.9775C21.4963 17.79 19.6638 16.8937 19.3226 16.77C18.5563 16.4862 18.7726 16.725 17.3013 18.41C17.0826 18.6537 16.8651 18.6725 16.4938 18.5037C16.1188 18.3162 14.9151 17.9225 13.49 16.6475C12.38 15.6537 11.6351 14.435 11.4151 14.06C11.0488 13.4275 11.8151 13.3375 12.5126 12.0175C12.6376 11.755 12.5738 11.5487 12.4813 11.3625C12.3875 11.175 11.6413 9.33747 11.3288 8.60497C11.0288 7.87497 10.72 7.96747 10.4888 7.96747C9.7688 7.90497 9.24255 7.91497 8.7788 8.39747C6.7613 10.615 7.27005 12.9025 8.9963 15.335C12.3888 19.775 14.1963 20.5925 17.5013 21.7275C18.3938 22.0112 19.2076 21.9712 19.8513 21.8787C20.5688 21.765 22.0601 20.9775 22.3713 20.0962C22.6901 19.215 22.6901 18.4837 22.5963 18.315C22.5038 18.1462 22.2588 18.0525 21.8838 17.8837Z" fill="#FAFAFA"/>
</svg>
