<svg width="70" height="42" viewBox="0 0 70 42" fill="none" xmlns="http://www.w3.org/2000/svg">
<path d="M68.7597 0.0018457C49.3983 0.0018457 30.0388 0.0018457 10.6774 0.0018457C9.66224 0.0018457 9.42783 0.234404 9.4223 1.244C9.4186 1.93614 9.4186 2.63012 9.42045 3.34625V4.70653H6.17386C4.8708 4.70653 4.70653 4.8708 4.70653 6.1591V9.4223H4.33739C4.00701 9.4223 3.68586 9.42414 3.37209 9.42599C2.6615 9.42968 1.98966 9.43337 1.31598 9.41491C0.679217 9.3983 0.278701 9.56257 0 9.96309V41.1259C0.23625 41.5448 0.59247 41.7036 1.28092 41.7036H1.28276C16.6814 41.6943 32.3367 41.6925 47.4788 41.6925H59.2968C60.3581 41.6925 60.574 41.4766 60.5777 40.4153C60.5795 39.7268 60.5795 39.0384 60.5777 38.3333V36.9823H63.2355C64.1953 36.9823 64.8394 36.9657 65.0591 36.7497C65.275 36.5356 65.2916 35.9007 65.2916 34.9557V32.2757H66.6574C67.3773 32.2757 68.0712 32.2757 68.7652 32.2757C69.7693 32.2721 70 32.0358 70 31.0151C70 21.0927 70 11.172 70 1.24954C70 0.234404 69.7674 0 68.7615 0L68.7597 0.0018457ZM58.924 40.0221H1.66482V11.1H58.9221V40.024L58.924 40.0221ZM63.6176 35.3322H60.5795V10.8952C60.5795 9.58841 60.4171 9.42414 59.1288 9.42414H6.34736V6.38612H63.6157V35.3322H63.6176ZM68.3499 30.6183H65.2935V6.13141C65.2935 4.89479 65.107 4.71023 63.8649 4.71023H11.0797V1.65559H68.3481V30.6183H68.3499Z" fill="black"/>
<path d="M5.80292 31.1111C8.32045 31.2385 10.3821 33.278 10.598 35.8527C10.6829 36.8568 10.8306 36.9841 11.9233 36.9841H34.8542C39.4814 36.9841 44.1104 36.9841 48.7376 36.9841C49.6955 36.9841 49.9133 36.7922 49.9705 35.9025C50.1311 33.3906 52.1872 31.2938 54.6494 31.1296C55.6885 31.0594 55.8583 30.8619 55.8601 29.7158C55.862 26.9528 55.862 24.1897 55.8601 21.4286C55.8601 20.275 55.7272 20.1274 54.5737 20.0074C52.1724 19.7564 50.2935 17.9181 50.0037 15.5353C49.8413 14.1916 49.7804 14.1381 48.3998 14.1381H12.2056C10.7789 14.1381 10.7328 14.1787 10.5427 15.5685C10.2049 18.0325 8.37951 19.7785 5.89335 20.0148C4.89852 20.1089 4.71026 20.3175 4.70842 21.3178C4.70657 24.1491 4.70657 26.9804 4.70842 29.8136C4.70842 30.8324 4.90406 31.0631 5.80292 31.1093V31.1111ZM6.36401 21.687L6.6261 21.6076C6.75714 21.567 6.89188 21.5301 7.02846 21.4913C7.30901 21.4138 7.60063 21.3326 7.86825 21.2237C10.0536 20.3359 11.4434 18.7689 11.9989 16.5707C12.141 16.0096 12.4677 15.7586 13.0621 15.7586H13.0639C24.5515 15.7697 36.1222 15.7697 47.4548 15.7586H47.4585C47.9218 15.7586 48.3758 15.8601 48.5733 16.5873C49.2581 19.1104 50.8841 20.7401 53.4072 21.4267C54.0015 21.5892 54.2525 21.9232 54.2451 22.5434C54.223 24.5109 54.2304 26.5135 54.2378 28.4515V28.6157C54.2396 28.948 54.2415 29.5035 53.5216 29.6881C50.8343 30.3765 49.1861 32.0561 48.4847 34.8247C48.4718 34.8763 48.4552 34.9262 48.4312 34.9945L48.3131 35.3507H12.2352L12.1687 35.0664C11.4544 32.0506 9.64935 30.2473 6.65194 29.5552L6.36585 29.4887V21.6888L6.36401 21.687Z" fill="black"/>
<path d="M30.275 31.0742C30.275 31.0742 30.2898 31.0742 30.2972 31.0742C31.7719 31.0687 33.158 30.4836 34.2027 29.4297C35.2381 28.3832 35.8029 27.0081 35.7955 25.5537C35.7863 24.0919 35.2031 22.7095 34.1492 21.6593C33.1045 20.6183 31.7387 20.0461 30.3009 20.0461C30.2898 20.0461 30.2806 20.0461 30.2695 20.0461C28.828 20.0554 27.4031 20.6663 26.3585 21.7239C25.3138 22.7833 24.7435 24.1528 24.7546 25.5814C24.7767 28.6139 27.2518 31.0742 30.275 31.0742ZM30.2806 21.663H30.2861C32.4179 21.663 34.1584 23.4053 34.1713 25.55C34.1824 27.6855 32.4548 29.4389 30.3212 29.4555C30.3101 29.4555 30.299 29.4555 30.288 29.4555C29.2451 29.4555 28.2595 29.0458 27.512 28.2983C26.7682 27.5544 26.364 26.5799 26.3714 25.55C26.388 23.4459 28.1783 21.6648 30.2806 21.663Z" fill="black"/>
</svg>
