<svg width="70" height="70" viewBox="0 0 70 70" fill="none" xmlns="http://www.w3.org/2000/svg">
<path d="M69.7189 48.978C69.0795 47.6648 68.0185 47.0254 66.4738 47.0254H66.4711C64.1244 47.0254 61.7778 47.0254 59.4325 47.0254H55.475L55.3262 46.5059L55.4998 46.3957C55.5563 46.3598 55.6114 46.3226 55.6679 46.2868C55.7919 46.2055 55.9201 46.1215 56.0551 46.0443C57.3559 45.2919 58.6581 44.5396 59.9602 43.7872C61.578 42.853 63.1943 41.9187 64.8106 40.9831C66.7439 39.8628 67.2289 38.0329 66.1073 36.0872C63.1888 31.0232 60.5996 26.5421 58.1909 22.3848C57.0803 20.4681 55.2711 19.9858 53.3488 21.0937C51.7476 22.0169 50.1478 22.9415 48.5466 23.8661C47.2486 24.6171 45.9492 25.3667 44.6512 26.1163C44.5106 26.1976 44.3659 26.2693 44.1841 26.3602C44.0835 26.4098 43.9705 26.4663 43.8368 26.5352L43.0748 26.9252L43.4675 26.1632C43.5364 26.0309 43.5929 25.9179 43.6425 25.8187C43.7348 25.6354 43.8079 25.4894 43.8892 25.3488C44.6057 24.1059 45.3236 22.8644 46.0415 21.6215C46.9882 19.9844 47.9335 18.3474 48.8774 16.7091C50.0238 14.7193 49.5415 12.9183 47.5559 11.7691C43.5461 9.45 38.7894 6.69961 33.9142 3.88858C31.9437 2.75177 30.1606 3.22854 29.0224 5.1935L28.7289 5.69921C27.0616 8.57913 25.3364 11.5583 23.5203 14.4864L23.0518 15.2429L23.0118 14.3541C23.0091 14.2825 23.0049 14.2108 23.0008 14.1392C22.9911 13.9807 22.9829 13.8181 22.9815 13.6528C22.9815 12.7323 22.976 11.8118 22.9705 10.8927C22.9581 8.67972 22.9443 6.39232 23.0008 4.14213C23.0559 1.89882 22.2388 0.620079 20.3537 0H2.65669C1.27047 0.412008 0.400984 1.2815 0 2.65945V67.3461C0.399606 68.7226 1.26909 69.5921 2.65807 70.0028H67.3433C68.7254 69.5976 69.5949 68.7281 70 67.3461V49.6628C69.9738 49.598 69.949 49.5333 69.9242 49.4685C69.8581 49.2963 69.7947 49.1337 69.7189 48.978ZM24.2878 17.0425C24.3264 16.9709 24.3608 16.9006 24.3967 16.8331C24.4697 16.6898 24.54 16.5533 24.6171 16.4183C26.5752 13.023 28.536 9.62913 30.4955 6.23661C31.2368 4.95374 31.8569 4.78976 33.148 5.53524C37.614 8.11201 42.0799 10.6902 46.5445 13.2711C47.8122 14.0041 47.9831 14.649 47.2472 15.9236C45.3016 19.2996 43.3545 22.6742 41.4075 26.0488C41.3303 26.1839 41.249 26.3106 41.1539 26.4594C41.1071 26.5325 41.0589 26.6096 41.0051 26.6937L40.8646 26.9197L24.1638 17.2781L24.2864 17.0439L24.2878 17.0425ZM23.2309 18.8201L40.188 28.6063L39.8187 28.853C39.7222 28.9177 39.6382 28.9756 39.561 29.028C39.415 29.1285 39.2882 29.2154 39.1545 29.2925C37.9405 29.9939 36.7266 30.6939 35.514 31.3953C32.4921 33.1398 29.3683 34.9435 26.301 36.7266C26.053 36.8713 25.8283 36.9429 25.6037 36.9429C25.3791 36.9429 25.1573 36.8713 24.912 36.7279C22.9856 35.5966 21.0165 34.4612 19.1136 33.363C18.3502 32.922 17.5868 32.4825 16.8234 32.0402C16.6732 31.9533 16.5299 31.861 16.377 31.7618C16.3039 31.715 16.2281 31.6667 16.1482 31.6157L15.9236 31.4738L23.2309 18.8173V18.8201ZM15.0031 33.0695L23.7297 38.1114L23.3604 38.3581C23.2874 38.4077 23.2199 38.4531 23.1579 38.4959C23.0283 38.5841 22.9167 38.6612 22.7955 38.7315L20.9215 39.8146C17.0053 42.0799 12.9555 44.4211 8.96358 46.7098C8.68799 46.8683 8.38071 46.94 8.08445 47.0089C7.95354 47.0392 7.82953 47.0681 7.71102 47.1039L7.52913 47.1577L7.15433 46.6685L15.0018 33.0709L15.0031 33.0695ZM5.25689 46.3709C4.97992 46.8559 4.6437 47.0488 4.09252 47.0378C3.64469 47.0281 3.19961 47.0612 2.72972 47.0957C2.52717 47.1108 2.32323 47.1246 2.11929 47.137L1.82854 47.1535V34.7644H11.8559L11.6657 35.1598C11.6368 35.2191 11.6106 35.2783 11.5844 35.3348C11.5252 35.463 11.4701 35.5856 11.3998 35.7069C10.8252 36.7045 10.2492 37.7008 9.67323 38.697C8.22087 41.2104 6.72028 43.8092 5.25689 46.3722V46.3709ZM27.2504 38.2451L32.2992 46.9758H13.1829L13.0203 46.4646L27.2518 38.2451H27.2504ZM21.1598 18.7346C21.1116 18.8283 21.0675 18.9124 21.0276 18.9923C20.9476 19.1494 20.8787 19.2844 20.8016 19.4181C20.147 20.5522 19.4925 21.6862 18.838 22.8203C17.0577 25.9041 15.2181 29.0927 13.4171 32.2344C13.1291 32.7374 12.7846 32.9427 12.2321 32.9427C12.2266 32.9427 12.2197 32.9427 12.2142 32.9427C9.84685 32.9234 7.43957 32.9262 5.11083 32.9289C4.33366 32.9289 3.55787 32.9303 2.78071 32.9303H1.84508V18.3309H21.3693L21.1598 18.7333V18.7346ZM1.79547 12.0516C1.79547 9.24882 1.79547 6.44606 1.79547 3.64193C1.79547 2.31634 2.31358 1.79961 3.64055 1.79823C8.89606 1.79685 14.1516 1.79547 19.4057 1.79823C20.6224 1.79823 21.1654 2.33012 21.1681 3.51929C21.1764 7.02067 21.1736 10.5813 21.1709 14.0248V15.637C21.1709 15.7596 21.153 15.8754 21.1364 15.998C21.1281 16.0531 21.1199 16.111 21.113 16.173L21.0854 16.4169H1.79685V12.0502L1.79547 12.0516ZM18.7594 68.2059H9.625C8.85472 68.2059 8.08445 68.2059 7.31417 68.2059C6.08091 68.2059 4.84626 68.2059 3.61299 68.2045C2.32323 68.2045 1.79685 67.6809 1.79685 66.3994C1.79409 61.1411 1.79409 55.8829 1.79685 50.6232C1.79685 49.4051 2.31358 48.8374 3.42008 48.8346C7.40236 48.825 11.4508 48.8291 15.3656 48.8333L18.2317 48.836C18.3102 48.836 18.375 48.8526 18.4439 48.8718C18.4728 48.8801 18.5045 48.8884 18.5445 48.8966L18.7608 48.9449V68.2073L18.7594 68.2059ZM35.2287 68.1797H20.6762V48.8746H35.2287V68.1797ZM35.2549 47.0378C34.6335 47.0378 34.2683 46.8228 33.9555 46.2716C32.827 44.2791 31.6585 42.2632 30.5299 40.3134C30.1276 39.6189 29.7252 38.9244 29.3242 38.2299C29.2484 38.099 29.174 37.9667 29.09 37.8165L28.8213 37.337L41.5053 30.0118L51.3274 47.024H49.9949C48.8815 47.024 47.7667 47.024 46.6533 47.024C42.9205 47.0226 39.0622 47.0213 35.2673 47.0378H35.2549ZM51.6911 68.1522H37.1069V48.887H51.6911V68.1522ZM43.0679 29.1148L44.822 28.0992C45.872 27.4902 46.9028 26.8935 47.9348 26.2969C50.0183 25.0925 52.1018 23.8882 54.1866 22.6852C55.3041 22.0404 56.0207 22.2264 56.6573 23.326C59.2864 27.8691 61.9114 32.4136 64.535 36.9594C65.1799 38.0756 64.9939 38.7907 63.8929 39.4287C61.2279 40.972 58.5602 42.514 55.8622 44.0724L52.7467 45.872L43.0693 29.1148H43.0679ZM68.2031 66.2905C68.2031 67.7029 67.7016 68.2031 66.2878 68.2045C64.6191 68.2045 62.949 68.2045 61.2803 68.2045C60.1628 68.2045 59.0466 68.2045 57.9291 68.2045H53.5858V48.8264H57.7913C60.6189 48.8264 63.4478 48.8264 66.2768 48.8264C67.7002 48.8264 68.2045 49.3252 68.2045 50.7321C68.2045 55.9187 68.2045 61.1039 68.2045 66.2905H68.2031Z" fill="black"/>
<path d="M11.4826 54.1025H11.4798C9.04633 54.1025 7.05932 56.0758 7.04692 58.5023C7.0359 60.8931 9.05046 62.9325 11.4467 62.9545C12.6318 62.9683 13.741 62.5094 14.5857 61.6703C15.4359 60.8256 15.9016 59.7012 15.8975 58.5065C15.8892 56.0799 13.9091 54.1039 11.4826 54.1025ZM13.318 60.3888C12.8247 60.8821 12.1729 61.1535 11.4826 61.1535H11.4743C10.0646 61.1494 8.88787 59.9919 8.84928 58.574C8.83137 57.8823 9.08905 57.2236 9.57409 56.7179C10.0688 56.2039 10.7343 55.9159 11.4467 55.9077C12.1633 55.9008 12.8302 56.164 13.3249 56.6518C13.8182 57.1382 14.091 57.7955 14.0924 58.5065C14.0951 59.2175 13.8196 59.8872 13.3166 60.3888H13.318Z" fill="black"/>
</svg>
