<svg width="70" height="70" viewBox="0 0 70 70" fill="none" xmlns="http://www.w3.org/2000/svg">
<path d="M51.9692 66.9395C51.9509 66.4237 51.5489 65.996 51.0734 65.9831C51.0642 65.9831 51.0551 65.9831 51.0459 65.9831C50.5557 65.9831 50.2418 66.3319 50.2051 66.9212C50.1904 67.158 50.1941 67.404 50.1978 67.6408C50.1978 67.7528 50.2014 67.8629 50.2014 67.973V68.1566H1.81553V13.0061H12.7105L12.6995 13.2007C12.6775 13.5953 12.6518 13.9864 12.6279 14.3755C12.5692 15.2952 12.5141 16.1654 12.4902 17.052C12.4811 17.4228 12.5471 17.6761 12.694 17.8267C12.8482 17.9846 13.1107 18.0598 13.5201 18.0598C21.8561 18.0635 30.1903 18.0635 38.5263 18.0598C38.9577 18.0598 39.233 17.9827 39.3909 17.8193C39.5506 17.6541 39.6167 17.3788 39.602 16.9492C39.5726 16.0791 39.5047 15.1924 39.4404 14.337C39.4129 13.9625 39.3835 13.588 39.3578 13.2153L39.345 13.0189H50.3024V14.0121C50.3024 14.6233 50.3024 15.2328 50.3024 15.8441C50.3024 17.3145 50.2987 18.8363 50.3079 20.3306C50.3097 20.7528 50.4695 21.0943 50.7467 21.2705C50.9871 21.4229 51.2882 21.4302 51.5929 21.2888C52.0096 21.0961 52.0886 20.7491 52.0886 20.1782C52.0886 18.8712 52.0886 17.566 52.0886 16.259V12.6206C52.0886 11.3649 51.916 11.1906 50.6751 11.1906H48.8265C45.6268 11.1887 42.3189 11.1869 39.066 11.1979C38.5923 11.2034 38.2179 11.0969 37.9095 10.5866C37.1238 9.28507 36.0884 8.26074 34.831 7.54481C33.8305 6.9739 33.3091 6.28183 33.0283 5.1547C32.2279 1.92751 29.5019 0 25.7368 0C22.2397 0 19.2585 2.61957 18.7978 6.09276C18.7574 6.39381 18.5096 6.74994 18.2452 6.88762C16.5949 7.74674 15.231 8.98585 14.1956 10.5719C13.8982 11.0272 13.5605 11.2071 12.9785 11.1997C10.9189 11.1905 8.82431 11.1906 6.79767 11.1906C4.96562 11.1906 3.13174 11.1905 1.29969 11.1832C0.743467 11.1795 0.313908 11.2677 0 11.6917V69.9868H51.3818C51.4424 69.8951 51.5066 69.8069 51.5709 69.7206C51.7471 69.482 51.9123 69.2562 51.9472 69.0286C52.0335 68.4632 52.0078 67.8611 51.9821 67.2791C51.9766 67.1653 51.9729 67.0515 51.9674 66.9377L51.9692 66.9395ZM14.1534 16.0681C14.2103 15.7854 14.2599 15.5045 14.3058 15.231C14.4104 14.6252 14.5077 14.0524 14.6986 13.4962C15.499 11.1612 17.0887 9.41541 19.4201 8.30663C20.1562 7.95601 20.4242 7.565 20.4407 6.81052C20.505 3.97801 22.9061 1.77698 25.9185 1.77698C25.9387 1.77698 25.9608 1.77698 25.9809 1.77698C29.0191 1.80818 31.4128 4.06061 31.4349 6.90598C31.4404 7.58887 31.679 7.93765 32.3472 8.23688C35.5524 9.67608 37.3514 12.1818 37.6965 15.6844C37.7039 15.7486 37.7094 15.8331 37.7039 15.9194C37.7002 15.9708 37.6855 16.013 37.669 16.0662C37.6616 16.0901 37.6506 16.1213 37.6378 16.1598L37.5992 16.2902H14.1075L14.1534 16.0699V16.0681Z" fill="black"/>
<path d="M69.0487 33.858C67.3121 32.9475 65.5627 31.9893 63.872 31.0622C63.1836 30.6859 62.497 30.3096 61.8086 29.9351L50.3592 23.7065C50.0857 23.5578 49.8618 23.4366 49.6176 23.4366C49.4873 23.4366 49.3514 23.4715 49.1972 23.5541C42.5464 27.143 35.9011 30.6988 30.2765 33.7057C29.7496 33.9884 29.5238 34.3665 29.5256 34.976C29.5367 40.1729 29.5367 45.5663 29.5256 51.4626C29.5256 51.9637 29.6927 52.2666 30.1259 52.5383C37.3844 57.0909 43.3449 60.8468 48.8815 64.3549C49.445 64.7128 49.8911 64.7312 50.4712 64.4191C56.1216 61.3883 62.24 58.1263 69.1772 54.4456C69.7628 54.1354 69.9996 53.7389 69.9941 53.0799C69.9757 50.9229 69.9776 48.731 69.9813 46.6108C69.9813 45.8122 69.9831 45.0155 69.9831 44.217C69.9831 43.4185 69.9812 42.6071 69.9794 41.803C69.9739 39.7342 69.9684 37.5956 69.9996 35.49C70.0106 34.6823 69.7444 34.2252 69.0469 33.858H69.0487ZM45.166 27.6827C45.5295 27.4918 45.8856 27.3045 46.238 27.1191C47.3285 26.5427 48.3583 25.9993 49.412 25.4871C49.7131 25.3403 50.1848 25.5624 50.3739 25.6634C54.5722 27.9342 58.8348 30.2527 62.9578 32.4959L67.3452 34.8842L67.0514 35.0457C66.7082 35.2367 66.3667 35.4147 66.0381 35.5873C65.3057 35.9709 64.6118 36.3326 63.9766 36.775C63.4626 37.1311 63.0018 37.278 62.5594 37.278C62.0583 37.278 61.581 37.0889 61.0798 36.8062C57.3185 34.6859 53.4689 32.5749 49.7443 30.5354C48.4005 29.7993 47.0586 29.0631 45.7167 28.3252C45.6267 28.2756 45.5386 28.2242 45.412 28.1526L44.8704 27.8424L45.1678 27.6863L45.166 27.6827ZM40.2775 30.3463C40.4941 30.227 40.7052 30.1095 40.9145 29.9902C41.4744 29.6744 42.0049 29.377 42.5648 29.1219C42.9117 28.964 43.4294 29.2283 43.5285 29.2834C45.2412 30.2196 46.9503 31.1614 48.6612 32.1049C52.3143 34.1187 56.0922 36.2022 59.8426 38.1848C61.0138 38.8053 61.7517 39.5451 61.5388 41.1458C61.4635 41.7186 61.48 42.3207 61.4947 42.9026C61.5039 43.2643 61.5149 43.6387 61.5039 44.0077C61.4947 44.2739 61.3534 44.6319 61.1312 44.7696C60.6209 45.0835 60.0867 45.3662 59.5213 45.6672C59.3047 45.7829 59.0826 45.9004 58.8531 46.0252L58.5814 46.172V42.6511C58.5814 42.552 58.5778 42.4529 58.5759 42.3537C58.5704 42.1298 58.5631 41.9003 58.5888 41.669C58.6695 40.9311 58.4015 40.4831 57.6324 40.0719C53.2725 37.7424 48.8521 35.345 44.5804 33.0264C43.3193 32.3417 42.0581 31.6588 40.797 30.9759C40.6905 30.919 40.5877 30.8548 40.4665 30.7814C40.406 30.7446 40.3417 30.7043 40.2701 30.662L39.9948 30.4968L40.2756 30.3426L40.2775 30.3463ZM48.7163 57.5792C48.7163 58.8202 48.7163 60.0611 48.7163 61.302C48.7163 61.3975 48.7071 61.4911 48.6961 61.5994C48.6906 61.6563 48.6851 61.7188 48.6796 61.7904L48.6575 62.0675L48.4115 61.939C48.3436 61.9023 48.2794 61.8711 48.2206 61.8418C48.0995 61.7812 47.9948 61.7298 47.892 61.6637L46.3665 60.6981C41.5808 57.6692 36.6336 54.5374 31.7781 51.4369C31.5082 51.2643 31.22 50.8476 31.2163 50.5007C31.1925 46.6383 31.1943 42.7135 31.1962 38.9154V36.8961C31.1962 36.8154 31.2053 36.7364 31.2163 36.6281C31.2237 36.5676 31.231 36.4941 31.2384 36.4042L31.2641 36.1233L31.9268 36.4868C32.1929 36.6318 32.4316 36.7621 32.6666 36.8961L37.9773 39.8975C41.3257 41.7902 44.674 43.681 48.0224 45.5718C48.3546 45.759 48.731 45.9719 48.7291 46.5979C48.7126 50.2565 48.7126 53.9775 48.7144 57.5774L48.7163 57.5792ZM49.7424 44.3455C49.379 44.3455 49.0081 44.2207 48.5749 43.971C44.7805 41.7865 40.9034 39.6002 37.1531 37.4854C35.8295 36.7383 34.506 35.993 33.1824 35.244C33.0392 35.1632 32.8979 35.0751 32.7382 34.976C32.6574 34.9264 32.5729 34.8732 32.4793 34.8163L32.2058 34.6492L33.6083 33.8929C35.0346 33.1237 36.3839 32.3968 37.7607 31.6735C37.9718 31.5634 38.3022 31.6019 38.4876 31.7029C43.6625 34.5226 48.92 37.3973 54.0031 40.1803L55.3377 40.9109C55.3708 40.9292 55.3909 40.9494 55.4258 40.9825C55.446 41.0027 55.4754 41.0302 55.5231 41.0742L55.7067 41.2468L55.4864 41.3698C55.0146 41.6323 54.5465 41.8856 54.0802 42.139C52.9549 42.7503 51.8902 43.3285 50.8457 43.9747C50.451 44.2207 50.0986 44.3418 49.7388 44.3418L49.7424 44.3455ZM67.6077 53.357C63.503 55.4902 59.3396 57.6783 55.312 59.7931L51.5029 61.7922C51.3836 61.8546 51.2624 61.9097 51.1137 61.9794C51.0366 62.0143 50.954 62.0529 50.8585 62.0969L50.596 62.2199V58.0436C50.596 54.3685 50.5997 50.5686 50.585 46.8292C50.5832 46.2675 50.7649 45.9518 51.2349 45.7076C52.2886 45.1587 53.3496 44.5768 54.374 44.0151C54.8347 43.7617 55.2955 43.5102 55.7563 43.2588C55.9013 43.1798 56.0445 43.1101 56.228 43.0238C56.3235 42.9779 56.4281 42.9265 56.5475 42.8677L56.8118 42.7374V43.6259C56.8118 44.0206 56.8118 44.3841 56.8118 44.7457C56.8118 45.0339 56.8118 45.3221 56.8081 45.6103C56.8026 46.2712 56.7971 46.9541 56.8283 47.6223C56.8467 48.0353 57.0027 48.3455 57.2634 48.4942C57.5259 48.6429 57.8728 48.6172 58.24 48.4226C59.0881 47.971 59.9435 47.5011 60.7714 47.0458C61.3919 46.7044 62.0142 46.363 62.6365 46.027C63.0789 45.7884 63.2717 45.4414 63.268 44.9017C63.2607 44.1472 63.2625 43.3799 63.2625 42.6383C63.2625 41.7369 63.2662 40.8044 63.2515 39.8884C63.2423 39.3468 63.4167 39.0439 63.8738 38.8145C64.821 38.3354 65.7481 37.836 66.7302 37.3073C67.1139 37.1017 67.503 36.8925 67.9014 36.6795L68.1547 36.5437L68.1712 36.8301C68.1786 36.9439 68.1859 37.0467 68.1914 37.1403C68.2043 37.3257 68.2153 37.4854 68.2153 37.647C68.2153 39.2349 68.2153 40.8209 68.2153 42.4088C68.2153 45.6764 68.2153 48.944 68.2226 52.2116C68.2226 52.6448 68.1767 53.0597 67.604 53.3589L67.6077 53.357Z" fill="black"/>
<path d="M34.427 29.0062C34.5775 28.8043 34.6215 28.5326 34.5481 28.2371C34.4361 27.7873 34.1498 27.6111 33.5238 27.6111H33.5183C30.7831 27.6148 28.0478 27.6148 25.3126 27.6148H22.4012C22.034 27.6129 21.6669 27.6148 21.2979 27.6129C20.3782 27.6111 19.4255 27.6092 18.4911 27.6203C17.944 27.6276 17.6154 27.9268 17.5916 28.4408C17.5659 28.9787 17.8743 29.3055 18.4599 29.3569C18.6398 29.3734 18.8197 29.3734 19.0106 29.3715H19.1299C20.9528 29.3715 22.7775 29.3715 24.6022 29.3715H27.4916C28.6848 29.3715 29.878 29.3715 31.0694 29.3715H31.1117C31.3374 29.3715 31.5632 29.3715 31.789 29.3752C32.4058 29.3789 33.0447 29.3826 33.667 29.3569C33.9974 29.3422 34.2654 29.2173 34.4233 29.0062H34.427Z" fill="black"/>
<path d="M16.8647 57.2267C16.8757 57.6049 17.0097 58.0381 17.9661 58.0399C19.543 58.0436 21.1199 58.0436 22.6967 58.0418H26.6178C28.2204 58.0418 29.823 58.0418 31.4238 58.0418C32.4334 58.0418 32.5637 57.5535 32.5748 57.1882C32.5821 56.9312 32.5142 56.7256 32.371 56.5805C32.1911 56.3951 31.8809 56.2978 31.4752 56.296C26.7078 56.2905 22.2837 56.2905 17.9477 56.296C17.5751 56.296 17.2777 56.4006 17.0886 56.5952C16.9344 56.7531 16.8573 56.9715 16.8628 57.2267H16.8647Z" fill="black"/>
<path d="M20.2865 42.0123C19.6972 42.0123 19.1025 42.0123 18.515 42.0178C18.146 42.0197 17.8578 42.1151 17.6853 42.2932C17.5421 42.4382 17.4723 42.642 17.4778 42.8971C17.487 43.4625 17.8487 43.7508 18.5481 43.7508C21.3586 43.7544 24.169 43.7544 26.9795 43.7508C27.4054 43.7508 27.7101 43.659 27.8864 43.4809C28.0241 43.3414 28.0883 43.145 28.0828 42.8806C28.0736 42.3024 27.701 42.0197 26.9447 42.016C25.9515 42.0123 24.9584 42.0123 23.9671 42.0142H22.7647C22.3425 42.0142 21.9184 42.0142 21.4962 42.0142C21.0979 42.0142 20.694 42.0142 20.2883 42.0142L20.2865 42.0123Z" fill="black"/>
<path d="M25.946 4.15063H25.9368C24.8813 4.15063 23.8881 4.56367 23.1392 5.31448C22.381 6.07631 21.9661 7.09146 21.9735 8.1727C21.9808 9.22824 22.4049 10.2214 23.1667 10.9722C23.9157 11.7083 24.8923 12.1122 25.9221 12.1122C25.935 12.1122 25.9497 12.1122 25.9643 12.1122C28.136 12.0901 29.8983 10.2948 29.8928 8.11212C29.8873 5.8964 28.1544 4.15614 25.9478 4.15247L25.946 4.15063ZM27.5119 9.70185C27.1062 10.1039 26.5481 10.3223 25.9405 10.3223C25.9331 10.3223 25.9258 10.3223 25.9184 10.3223C24.7161 10.3113 23.7284 9.33654 23.7193 8.14883C23.7137 7.56324 23.9414 7.01252 24.3599 6.59398C24.7876 6.16809 25.3622 5.93679 25.9607 5.9423C27.1686 5.95331 28.1507 6.93359 28.1488 8.1268C28.1488 8.7381 27.9231 9.29799 27.5137 9.70185H27.5119Z" fill="black"/>
<path d="M8.26065 30.2691C8.41668 30.4252 8.62412 30.5115 8.8444 30.5115C9.06469 30.5115 9.27213 30.4252 9.42816 30.2691L12.7802 26.9171C13.1014 26.5959 13.1014 26.0709 12.7802 25.7496C12.4589 25.4284 11.9339 25.4284 11.6127 25.7496L8.8444 28.5179L7.19776 26.8712C7.03622 26.7097 6.82511 26.6289 6.614 26.6289C6.4029 26.6289 6.19179 26.7097 6.03024 26.8712C5.70899 27.1925 5.70899 27.7175 6.03024 28.0387L8.26065 30.2691Z" fill="black"/>
<path d="M12.7803 40.0003C12.4591 39.6791 11.9341 39.6791 11.6128 40.0003L8.84456 42.7686L7.19792 41.122C7.03638 40.9604 6.82527 40.8796 6.61416 40.8796C6.40305 40.8796 6.19194 40.9604 6.0304 41.122C5.87436 41.278 5.78809 41.4854 5.78809 41.7057C5.78809 41.926 5.87436 42.1334 6.0304 42.2895L8.2608 44.5199C8.41684 44.6759 8.62427 44.7622 8.84456 44.7622C9.06485 44.7622 9.27228 44.6759 9.42832 44.5199L12.7803 41.1679C12.9364 41.0118 13.0227 40.8044 13.0227 40.5841C13.0227 40.3638 12.9364 40.1564 12.7803 40.0003Z" fill="black"/>
<path d="M11.6128 54.2529L8.84456 57.0211L7.19792 55.3745C7.03638 55.2129 6.82527 55.1322 6.61416 55.1322C6.40305 55.1322 6.19194 55.2129 6.0304 55.3727C5.87436 55.5287 5.78809 55.7361 5.78809 55.9564C5.78809 56.1767 5.87436 56.3841 6.0304 56.5402L8.2608 58.7706C8.41684 58.9266 8.62427 59.0129 8.84456 59.0129C9.06485 59.0129 9.27228 58.9266 9.42832 58.7706L12.7803 55.4185C12.9364 55.2625 13.0227 55.0551 13.0227 54.8348C13.0227 54.6145 12.9364 54.4071 12.7803 54.251C12.4573 53.9279 11.9341 53.9298 11.6128 54.251V54.2529Z" fill="black"/>
</svg>
