<svg width="60" height="60" viewBox="0 0 60 60" fill="none" xmlns="http://www.w3.org/2000/svg">
<path d="M59.9853 54.3262C59.9869 53.6571 59.9884 52.9865 59.9884 52.3174C59.9884 51.4363 59.7164 51.1674 58.8306 51.1643C58.3687 51.1627 57.9068 51.1643 57.4339 51.1643H56.4753V8.85362H57.4529C57.9401 8.8552 58.4241 8.85679 58.9097 8.85362C59.6832 8.84729 59.9853 8.55151 59.9884 7.797C59.9948 5.48921 59.9948 3.21937 59.9884 1.05077C59.9869 0.327908 59.6768 0.017882 58.9524 0.0163003C56.7806 0.00997322 54.5124 0.00997322 52.2062 0.0163003C51.4532 0.017882 51.159 0.319999 51.1527 1.09506C51.1495 1.56801 51.1495 2.04096 51.1511 2.52972V3.52149H8.8389V2.56927C8.8389 2.08683 8.84207 1.59965 8.8389 1.11405C8.83258 0.305763 8.54628 0.017882 7.74432 0.0163003C7.03411 0.0163003 6.32232 0.0163003 5.61052 0.017882C4.19484 0.0210456 2.73013 0.0257909 1.28756 0.000482625C0.643778 -0.0105897 0.264155 0.16815 0 0.609462V8.2573C0.275227 8.71917 0.669087 8.90582 1.27174 8.86311C1.71622 8.83148 2.1686 8.83939 2.60675 8.84571C2.80289 8.84888 3.00219 8.85204 3.20466 8.85204H3.52101V51.1627H3.20466C3.01484 51.1627 2.82345 51.1658 2.63206 51.169C2.18758 51.1769 1.72887 51.1848 1.27174 51.1516C0.670668 51.1089 0.275227 51.2955 0 51.7574V60.0016H8.24258C8.70604 59.7232 8.89268 59.3277 8.84998 58.7298C8.81676 58.2854 8.82467 57.833 8.83258 57.3948C8.83574 57.1971 8.8389 56.9994 8.8389 56.7969V56.4806H51.1495V56.7969C51.1495 56.9867 51.1527 57.1765 51.1559 57.3695C51.1638 57.814 51.1717 58.2727 51.1385 58.7298C51.0942 59.3293 51.2824 59.7248 51.7443 60.0016H59.3905C59.8334 59.7343 60.0106 59.3546 59.9995 58.7124C59.9742 57.2493 59.979 55.7624 59.9821 54.3246L59.9853 54.3262ZM52.9195 1.77997H58.2279V7.0773H52.9195V1.77997ZM1.77158 7.0773V1.76099H7.05784V7.0773H1.77158ZM7.06258 58.2411H1.76683V52.9453H7.06258V58.2411ZM52.1809 51.1658C51.4675 51.1737 51.159 51.4885 51.1511 52.213C51.1464 52.6986 51.148 53.1826 51.148 53.6793C51.148 53.9039 51.148 54.1332 51.148 54.3642V54.6805H16.6544V43.2064C16.6544 43.1004 16.6576 42.9929 16.6544 42.8869C16.6338 42.3064 16.2827 41.922 15.7718 41.9331C15.2735 41.9426 14.9334 42.3174 14.9255 42.8663C14.9145 43.5765 14.916 44.301 14.9192 45.0001C14.9192 45.2927 14.9208 45.587 14.9208 45.8796V54.6821H8.8389V53.7441C8.8389 53.2807 8.8389 52.8109 8.8389 52.3411C8.83574 51.4316 8.56842 51.1674 7.64467 51.1643H6.79843C6.46942 51.1611 6.13883 51.1611 5.80982 51.1595C5.75604 51.1595 5.71017 51.15 5.66588 51.1421C5.6469 51.139 5.62634 51.1342 5.59787 51.1295L5.33371 51.0852V8.85362H6.28752C6.76995 8.8552 7.25556 8.85679 7.74116 8.85362C8.54469 8.84729 8.83099 8.55941 8.83732 7.7543C8.84048 7.28135 8.84049 6.8084 8.8389 6.32438V5.34052H51.1495V6.31489C51.148 6.80524 51.1464 7.29242 51.1495 7.7796C51.1559 8.54518 51.4532 8.84571 52.2125 8.85362C52.6981 8.85837 53.1821 8.85679 53.6772 8.8552H54.6705V14.8896H20.2055V13.9232C20.207 13.4392 20.2086 12.9551 20.2055 12.4711C20.1991 11.6802 19.9002 11.3844 19.0998 11.3829C16.8806 11.3781 14.6503 11.3781 12.4706 11.3829C11.6687 11.3829 11.3697 11.6787 11.3681 12.4695C11.3634 14.8801 11.3634 17.0677 11.3681 19.1572C11.3697 19.9149 11.6703 20.2123 12.4406 20.2202C13.0907 20.2265 13.7408 20.2234 14.3925 20.2249C14.4415 20.2249 14.4811 20.2313 14.5364 20.2407C14.5633 20.2455 14.5997 20.2518 14.6487 20.2582L14.9192 20.2977V31.7892C14.9176 31.8999 14.916 32.0059 14.9224 32.1072C14.9524 32.6212 15.2988 32.9898 15.767 33.0024C15.9996 33.0072 16.2147 32.9265 16.376 32.7715C16.5468 32.6086 16.6433 32.3761 16.6481 32.1182C16.6639 31.2767 16.6607 30.4178 16.6576 29.5874C16.6576 29.2489 16.656 28.9104 16.656 28.5719V20.2186H17.6699C18.1697 20.2202 18.6538 20.2218 19.1362 20.2186C19.8986 20.2123 20.1991 19.9133 20.207 19.1509C20.2118 18.6653 20.2102 18.1813 20.2086 17.6878V16.696H54.6611V51.1627H54.3447C54.1106 51.1627 53.8812 51.1627 53.6551 51.1627C53.1473 51.1627 52.668 51.1595 52.1824 51.1658H52.1809ZM18.445 13.1576V18.4534H13.1492V13.1576H18.445ZM58.2232 58.2205H52.9274V52.9248H58.2232V58.2205Z" fill="black"/>
<path d="M23.446 28.5117C23.9474 28.5148 24.2907 28.1574 24.3239 27.6006C24.3381 27.3554 24.335 27.1087 24.3302 26.8698C24.3286 26.7638 24.3271 26.6626 24.3271 26.5645V25.8005L45.5686 47.0421H44.8046C44.7223 47.0421 44.6338 47.0421 44.5436 47.0421C44.4455 47.0421 44.3443 47.0421 44.2415 47.0421C44.1228 47.0421 44.0026 47.0421 43.8824 47.0452C43.2402 47.0595 42.8574 47.3853 42.8558 47.9184C42.8558 48.4593 43.2276 48.7709 43.8777 48.7757C45.1684 48.7852 46.4607 48.7852 47.7198 48.7757C48.4695 48.7693 48.7495 48.4925 48.7543 47.7507C48.7622 46.5596 48.7622 45.3037 48.7543 43.9086C48.7527 43.5258 48.6388 42.8804 47.908 42.8741H47.8985C47.3765 42.8741 47.0412 43.2616 47.0238 43.8896C47.0175 44.1237 47.0191 44.3594 47.0206 44.5682C47.0206 44.6568 47.0206 44.7406 47.0206 44.8181V45.5821L25.7854 24.3406H26.5494C26.6459 24.3406 26.7487 24.3406 26.8531 24.3437C27.092 24.3469 27.3387 24.3501 27.5839 24.3374C28.1407 24.3074 28.4982 23.9641 28.4966 23.4643C28.4966 22.9549 28.1375 22.6228 27.5871 22.6164C26.2094 22.599 24.838 22.599 23.5124 22.6164C22.9066 22.6244 22.6093 22.9201 22.6029 23.5228C22.5871 24.8325 22.5871 26.2039 22.6029 27.599C22.6093 28.151 22.9398 28.5101 23.4476 28.5133L23.446 28.5117Z" fill="black"/>
<path d="M15.7953 36.604H15.7858C15.5581 36.604 15.3429 36.6957 15.1769 36.8618C15.0092 37.0295 14.919 37.2494 14.9222 37.4803C14.9285 37.9374 15.3208 38.3265 15.7764 38.3313C16.0041 38.3313 16.2256 38.2427 16.3932 38.0735C16.5609 37.9042 16.6527 37.6843 16.6495 37.4534C16.6432 36.9979 16.2509 36.6087 15.7953 36.6024V36.604Z" fill="black"/>
</svg>
