<svg width="70" height="70" viewBox="0 0 70 70" fill="none" xmlns="http://www.w3.org/2000/svg">
<path d="M66.7783 28.8042C66.1139 28.668 65.3998 28.6698 64.7906 28.6882C64.1888 28.7066 63.7416 28.5557 63.5355 27.7607C63.2594 26.7061 62.8748 25.3258 62.3226 24.0117C61.8533 22.8927 61.3196 21.816 60.7546 20.675C60.5098 20.1799 60.2613 19.6793 60.0166 19.1677L59.9301 18.9873L60.0736 18.8493C60.1785 18.748 60.2908 18.6431 60.4067 18.5327C60.6773 18.2769 60.9589 18.0119 61.2294 17.7303C62.9502 15.9432 62.9502 13.5451 61.2294 11.7636C60.2319 10.7311 59.2197 9.71887 58.2166 8.75081C56.4627 7.05945 54.0112 7.07969 52.2536 8.79682C51.9794 9.06368 51.7125 9.35263 51.453 9.63237C51.3297 9.76488 51.2046 9.89924 51.0794 10.0317L50.923 10.1955L50.7316 10.0759C48.4715 8.6551 46.1176 7.57845 43.5373 6.78522C43.3459 6.72633 43.114 6.68768 42.8895 6.65087C42.3686 6.56437 41.8294 6.47419 41.5496 6.10426C41.2515 5.70857 41.2828 5.13435 41.3122 4.57854C41.3233 4.35953 41.3343 4.15156 41.327 3.962C41.2313 1.81237 39.4939 0.0860403 37.3737 0.0289868C35.8995 -0.00966228 34.3499 -0.00966228 32.6346 0.0289868C30.7629 0.0694764 29.1451 1.42036 28.7881 3.24054C28.6611 3.8847 28.6648 4.57854 28.6684 5.2503V5.44538C28.6721 5.98463 28.4642 6.25518 27.9323 6.40793L27.5439 6.5202C26.355 6.86252 25.1256 7.21404 23.979 7.69256C22.86 8.15819 21.7852 8.69191 20.6478 9.25692C20.1546 9.5017 19.654 9.75016 19.1442 9.99494L18.9638 10.0814L18.8258 9.93604C18.7227 9.82746 18.6142 9.71335 18.5037 9.59372C18.2479 9.32134 17.9829 9.03791 17.7031 8.76553C15.9566 7.07417 13.5235 7.06313 11.788 8.73792C10.761 9.72808 9.73222 10.7587 8.72734 11.8004C7.04702 13.5415 7.05623 15.9727 8.74758 17.7119C9.02181 17.9935 9.32916 18.2566 9.62731 18.5125C9.76719 18.6321 9.90522 18.7499 10.0396 18.8695L10.2126 19.0241L10.0911 19.221C8.53409 21.7424 7.42431 24.2031 6.70102 26.7429C6.65869 26.892 6.62556 27.0576 6.5906 27.2343C6.49305 27.7349 6.38999 28.252 6.02926 28.5189C5.67222 28.7821 5.16242 28.7416 4.66734 28.7011C4.47594 28.6864 4.29557 28.6698 4.12993 28.6735C2.28582 28.7066 0.774823 29.8183 0.187724 31.574C0.145394 31.701 0.0938622 31.8188 0.04233 31.9348C0.0276065 31.9679 0.012883 32.001 0 32.0341V37.9935C0.482194 39.4032 1.14659 40.2811 2.14595 40.8351C3.16555 41.3983 4.27717 41.3964 5.13297 41.332C5.90595 41.2731 6.27956 41.5602 6.46729 42.3516C7.13352 45.1804 8.32428 47.9502 10.104 50.8176L10.2291 51.0201L10.0488 51.1747C9.92546 51.2796 9.79663 51.3845 9.66596 51.4912C9.38806 51.7176 9.10095 51.9513 8.84697 52.2071C7.03598 54.0292 7.02126 56.4806 8.81016 58.3082C9.89049 59.4106 10.8438 60.3639 11.7254 61.2253C13.5143 62.97 15.9308 62.9682 17.7363 61.2197C18.0013 60.9639 18.2534 60.6971 18.5203 60.4155C18.6436 60.2848 18.7706 60.1523 18.8994 60.0198L19.0467 59.867L19.2325 59.9683C19.4884 60.11 19.7368 60.2572 19.9779 60.3989C20.4988 60.7081 20.992 61.0007 21.5165 61.2105C23.5833 62.0406 25.6943 62.8301 27.7961 63.5608C28.3813 63.7651 28.731 64.0393 28.6703 64.7792C28.6151 65.438 28.6261 65.9607 28.7053 66.4263C29.0052 68.2005 30.0451 69.3618 31.7953 69.8753C31.891 69.9029 31.9849 69.9379 32.0788 69.9747C32.1027 69.9839 32.1266 69.9931 32.1524 70.0023H37.8338C37.8485 69.9968 37.8633 69.9894 37.878 69.9839C37.9534 69.9508 38.0399 69.914 38.1338 69.8882C40.1086 69.3563 41.3049 67.8195 41.3343 65.7822C41.3362 65.6313 41.3251 65.4656 41.3122 65.2889C41.2773 64.8012 41.2405 64.2988 41.5036 63.951C41.765 63.6105 42.2527 63.5185 42.7257 63.4301C42.9042 63.397 43.0717 63.3657 43.2208 63.3215C45.8287 62.5688 48.293 61.459 50.7573 59.9314L50.9506 59.8118L51.1052 59.9793C51.2395 60.1247 51.372 60.2701 51.5027 60.4173C51.7898 60.7376 52.0622 61.0394 52.3585 61.3228C54.0315 62.9166 56.4572 62.9277 58.1246 61.3523C59.2197 60.3179 60.2963 59.2394 61.327 58.1481C62.9281 56.453 62.9208 54.0825 61.3122 52.382C61.0306 52.0838 60.727 51.8115 60.4067 51.5243C60.2595 51.3937 60.1141 51.2612 59.9687 51.1268L59.8068 50.9759L60.357 50.041C61.592 47.9539 62.5637 45.7325 63.2428 43.4412C63.2944 43.2682 63.3312 43.0731 63.3698 42.8669C63.4655 42.3498 63.5649 41.8161 63.933 41.5326C64.3029 41.2474 64.8477 41.286 65.3741 41.3228C65.582 41.3375 65.7771 41.3504 65.9556 41.3449C68.1605 41.2768 69.9255 39.5173 69.9752 37.3383C70.0083 35.8236 70.0083 34.2519 69.9752 32.6673C69.9347 30.7992 68.5911 29.1741 66.7783 28.8042ZM68.3298 37.2021C68.2948 38.6376 67.2642 39.6609 65.8213 39.6903C64.9968 39.7069 64.1759 39.7014 63.2649 39.6922H63.2484C62.6889 39.6922 62.3889 39.9388 62.2766 40.4873C61.5588 44.0393 60.1748 47.387 58.1596 50.4366C57.8504 50.9041 57.8964 51.2924 58.3086 51.6955C58.8736 52.2476 59.4773 52.8439 60.0663 53.4568C61.1282 54.5666 61.1245 55.9929 60.0552 57.0935C59.0724 58.1039 58.0712 59.1051 57.0792 60.0695C55.9786 61.1388 54.5523 61.1443 53.4425 60.0787C53.1186 59.7676 52.7984 59.4437 52.4873 59.1309C52.237 58.8769 51.9867 58.6247 51.7309 58.3763C51.2156 57.8738 50.934 57.8389 50.3635 58.2143C47.312 60.2112 43.9827 61.5823 40.4712 62.289C39.9153 62.4013 39.6706 62.705 39.6761 63.2774C39.6834 64.1092 39.6908 64.9687 39.6742 65.8337C39.6448 67.2895 38.6215 68.3201 37.1841 68.3422C36.4056 68.3533 35.6603 68.3588 34.9406 68.3588C34.221 68.3588 33.4738 68.3533 32.7671 68.3404C31.3776 68.3165 30.3451 67.2785 30.3138 65.8705C30.3028 65.3847 30.3046 64.8933 30.3064 64.4166C30.3064 64.0503 30.3101 63.6841 30.3064 63.3178C30.2991 62.6553 30.1058 62.4142 29.4801 62.2854C25.9741 61.5621 22.6686 60.1983 19.654 58.2309C19.0503 57.837 18.7706 57.8702 18.2313 58.4002C17.9921 58.6358 17.7565 58.875 17.5191 59.1124C17.2117 59.4235 16.8933 59.7456 16.5713 60.0548C15.4468 61.1388 14.0002 61.1333 12.8849 60.0419C11.9315 59.1088 10.9469 58.126 9.95859 57.1156C8.86537 55.9984 8.85985 54.5537 9.94755 53.431C10.2383 53.131 10.5402 52.8311 10.831 52.5421C11.1052 52.2697 11.3794 51.9992 11.6481 51.7213C12.1156 51.2409 12.1542 50.9336 11.8082 50.4054C9.79295 47.33 8.41263 43.9804 7.7059 40.4504C7.60099 39.9296 7.30652 39.6848 6.75808 39.6885H6.26484C5.5894 39.694 4.89187 39.6959 4.20355 39.6867C2.722 39.6627 1.67664 38.6247 1.66007 37.1616C1.64167 35.5972 1.64167 34.1746 1.66007 32.8145C1.68032 31.3974 2.73489 30.3501 4.16858 30.3244C5.04463 30.3078 5.93724 30.3152 6.72495 30.3225C6.73047 30.3225 6.73599 30.3225 6.74151 30.3225C7.30284 30.3225 7.60283 30.0759 7.71326 29.5256C8.41815 26.0214 9.78927 22.6921 11.788 19.6333C12.1579 19.0683 12.1229 18.7738 11.6242 18.264C11.3776 18.0119 11.1254 17.7616 10.8733 17.5131C10.5586 17.2021 10.2328 16.88 9.91994 16.5542C8.85433 15.4445 8.85985 14.0181 9.93282 12.9194C10.9303 11.8979 11.9315 10.8968 12.9088 9.94341C14.0057 8.87227 15.432 8.86859 16.5437 9.93052C16.8786 10.2508 17.2081 10.5839 17.5283 10.906C17.7694 11.1489 18.0105 11.3937 18.2553 11.6329C18.7687 12.1354 19.0503 12.1703 19.6227 11.7967C22.6889 9.79801 26.0164 8.42689 29.515 7.722C30.0709 7.60974 30.3156 7.30422 30.312 6.73369C30.3046 5.82267 30.2991 5.00368 30.3138 4.17733C30.3414 2.74363 31.3886 1.68906 32.8039 1.67065C34.4143 1.64857 35.859 1.64857 37.2209 1.67065C38.6086 1.69458 39.6393 2.73258 39.6742 4.14236C39.6853 4.63191 39.6834 5.12883 39.6816 5.60734C39.6816 5.96991 39.6779 6.33063 39.6816 6.6932C39.689 7.35576 39.8822 7.59685 40.5098 7.72384C44.0269 8.44529 47.3341 9.80906 50.3359 11.7783C50.9377 12.1722 51.2174 12.139 51.7585 11.6072C51.9923 11.3771 52.2242 11.1434 52.4561 10.9096C52.7855 10.5765 53.126 10.2324 53.472 9.90476C54.5505 8.87964 55.9897 8.88516 57.0553 9.91764C58.0823 10.9133 59.1 11.9311 60.081 12.9433C61.1116 14.0071 61.1171 15.4481 60.092 16.5266C59.5877 17.0567 59.0595 17.5775 58.5479 18.0818L58.2866 18.3395C57.8964 18.7241 57.8504 19.1069 58.1412 19.545C60.1675 22.6074 61.5625 25.9754 62.284 29.5569C62.3889 30.0759 62.6889 30.317 63.2281 30.317H63.7858C64.441 30.3115 65.1182 30.3097 65.7863 30.3189C67.255 30.3409 68.3022 31.3789 68.3316 32.8421C68.3409 33.3353 68.339 33.8359 68.3372 34.32C68.3372 34.5408 68.3353 34.7617 68.3353 34.9825C68.3353 35.2144 68.3353 35.4445 68.3372 35.6764C68.3409 36.1733 68.3427 36.6868 68.3316 37.1929L68.3298 37.2021Z" fill="black"/>
<path d="M44.9343 41.6118C44.5552 41.5124 44.176 41.4149 43.7969 41.3155C42.9687 41.102 42.1129 40.8811 41.2737 40.6456C40.9295 40.548 40.3516 40.3327 40.3424 39.9701C40.3387 39.7916 40.3258 39.602 40.3111 39.4033C40.2614 38.6689 40.2099 37.9088 40.5688 37.3659C41.8773 35.3874 42.4975 33.3427 42.4607 31.1158C42.4515 30.49 42.5252 29.8293 42.6816 29.152C43.381 26.1264 43.3386 23.3933 42.5509 20.7946C42.3043 19.9793 42.1258 19.8597 41.2111 19.8689C40.5467 19.8763 39.9706 19.8321 39.4479 19.7345C38.778 19.6094 38.1044 19.4603 37.4511 19.3168C36.8916 19.1935 36.3155 19.0665 35.745 18.9542C33.6009 18.5346 31.9371 18.772 30.509 19.6996C30.312 19.8266 30.0801 19.8744 29.8777 19.9167L29.8354 19.9259C28.2415 20.2572 27.2219 21.2179 26.7177 22.8614C26.3072 24.1976 26.5557 25.565 26.7931 26.8883C26.8851 27.4018 26.9956 27.9226 27.1023 28.4251C27.3784 29.7355 27.6636 31.0882 27.6913 32.4851C27.7189 33.8525 28.1569 35.1831 28.9612 36.3353C29.6679 37.3475 29.7673 38.3745 29.7709 39.2468C29.7746 40.0805 29.4433 40.5002 28.628 40.6916C27.9287 40.8572 27.2201 41.0449 26.5355 41.2271C26.0367 41.3596 25.5379 41.4922 25.0373 41.6173C23.2742 42.059 22.0816 43.0639 21.4927 44.6062C21.189 45.3994 21.0123 46.3804 20.9663 47.5251C20.9295 48.4288 21.1117 49.0747 21.5203 49.5017C21.9473 49.9453 22.6319 50.1624 23.6147 50.1624C26.2888 50.1624 28.9612 50.1624 31.6353 50.1624H38.3326C41.0491 50.1624 43.7638 50.1624 46.4784 50.1624C48.2323 50.1624 49.0495 49.3527 49.0513 47.6226V47.4883C49.0513 47.2822 49.0513 47.076 49.0513 46.8681C49.0127 44.2841 47.4354 42.2688 44.9324 41.6118H44.9343ZM28.4845 25.727L28.0998 25.8282L28.1403 25.4325C28.1624 25.2172 28.1771 24.9963 28.1919 24.7737C28.2268 24.2418 28.2636 23.6933 28.3925 23.1541C28.6225 22.1878 29.3495 21.6044 30.4427 21.5069C30.6212 21.4903 30.8918 21.4664 31.0077 21.3744C32.4617 20.2186 34.0904 20.3235 35.491 20.5793C37.2413 20.8977 38.9676 21.2271 40.624 21.5566C40.8669 21.6044 41.1319 21.8492 41.1908 22.0793C41.5479 23.5019 41.6197 25.0516 41.4154 26.9601L41.3822 27.2766L41.073 27.1975C40.6313 27.0852 40.1933 26.9601 39.77 26.8405C38.8222 26.5718 37.9277 26.3178 37.0057 26.1816C34.7346 25.8448 32.4046 25.6313 30.1501 25.4233L29.7838 25.3902C29.5851 25.3718 29.3513 25.4528 29.055 25.554C28.8894 25.6111 28.6998 25.6755 28.49 25.7307L28.4845 25.727ZM29.5354 29.0545C29.6366 28.6386 29.7581 28.2374 29.8887 27.8122C29.9476 27.619 30.0084 27.422 30.0673 27.2196L30.128 27.0135L30.3415 27.0208C33.9432 27.1405 37.1769 27.7091 40.2265 28.7545C40.4565 28.8337 40.7786 29.1171 40.7823 29.4023C40.7859 29.6048 40.7896 29.8072 40.7933 30.0097C40.8301 31.6716 40.8669 33.3906 40.0406 34.9973C38.9731 37.0696 37.5394 38.207 35.6567 38.4757C35.4156 38.5107 35.1781 38.5272 34.9444 38.5272C33.3782 38.5272 32.0052 37.7506 30.8531 36.2101C29.3237 34.1654 28.8802 31.7581 29.5354 29.0527V29.0545ZM34.1788 47.5656C34.1769 47.7828 34.1733 48.0055 34.1733 48.2355V48.5116H29.8298C29.2667 48.5116 28.7053 48.5116 28.1422 48.5116C26.622 48.5097 25.0484 48.5079 23.5043 48.5208C23.4969 48.5208 23.4895 48.5208 23.4803 48.5208C23.254 48.5208 22.9429 48.4913 22.7497 48.2705C22.6061 48.1085 22.5583 47.8821 22.5988 47.5803C22.6282 47.365 22.6485 47.1386 22.6687 46.9196C22.7129 46.43 22.757 45.9239 22.9135 45.4454C23.2797 44.3246 24.1042 43.5718 25.2968 43.2719C25.7017 43.1706 26.1048 43.0639 26.5079 42.9571C27.1575 42.786 27.8274 42.6093 28.4955 42.4529C28.8139 42.3792 29.1967 42.4289 29.4525 42.5762C30.9838 43.4614 32.3531 44.2878 33.6414 45.0976C33.9358 45.2835 34.1346 45.7012 34.1549 45.9975C34.1917 46.511 34.1861 47.0227 34.1788 47.5638V47.5656ZM34.9941 43.8166C34.8671 43.8166 34.742 43.7909 34.6389 43.732C33.7132 43.1946 32.7948 42.6406 31.9077 42.1032L30.9856 41.5474L31.6003 39.2008L31.9095 39.3683C33.9119 40.4523 35.9916 40.4726 38.0915 39.4327L38.386 39.2855L39.0541 41.5731L38.1192 42.1271C37.2394 42.6498 36.3284 43.1909 35.4156 43.7136C35.307 43.7761 35.1505 43.8148 34.9941 43.8148V43.8166ZM47.2348 48.3349C47.0802 48.4913 46.8686 48.5134 46.5207 48.5134C46.4545 48.5134 46.3845 48.5134 46.3091 48.5134C46.2005 48.5134 46.0772 48.5116 45.9355 48.5116C43.8024 48.5153 41.6675 48.5153 39.5344 48.5134H35.9824L35.9162 48.3312C35.8996 48.2834 35.8867 48.2539 35.8775 48.2318C35.8609 48.1895 35.8444 48.149 35.8407 48.0938C35.6898 45.5577 35.7468 45.4491 37.9038 44.1737C38.0731 44.0724 38.2498 43.9786 38.4191 43.8884C38.7762 43.697 39.1111 43.5185 39.4001 43.2829C40.4767 42.405 41.6473 42.2449 42.9761 42.7915C43.2632 42.9093 43.5742 42.9792 43.9036 43.051C44.0693 43.0878 44.2349 43.1246 44.3987 43.1688C46.3514 43.686 47.3876 45.0148 47.3968 47.0079C47.3968 47.1607 47.4005 47.295 47.4023 47.411C47.4115 47.8858 47.417 48.1472 47.233 48.3331L47.2348 48.3349Z" fill="black"/>
<path d="M58.8055 32.312V32.2844C58.8018 32.1979 58.4521 23.4963 50.5879 16.8321L50.5622 16.8082C50.4922 16.7327 50.4094 16.6554 50.3082 16.5744C49.2702 15.7407 48.1862 14.9861 47.0893 14.3328L46.5942 14.0457C46.285 13.8708 46.0108 13.7218 45.7531 13.5892L45.6353 13.5304C42.363 11.8611 38.8901 11.0237 35.2645 11.0237C33.632 11.0237 31.9701 11.193 30.2806 11.5335C17.4123 14.123 9.12111 26.2882 11.4088 39.2302C13.6265 51.7819 25.6924 60.5332 38.3086 58.7388C50.2456 57.0401 58.9601 47.0502 59.0319 34.9825C58.995 34.596 58.9638 34.2076 58.9343 33.8193C58.8957 33.3242 58.857 32.8126 58.8018 32.3138L58.8055 32.312ZM56.9264 39.0977C55.8461 45.0294 52.4413 50.1716 47.3396 53.5764C43.6053 56.0683 39.3613 57.3585 35.0547 57.3585C33.5142 57.3585 31.9664 57.1947 30.4297 56.8597C24.8108 55.6395 19.93 52.4058 16.6835 47.7514C13.4369 43.0969 12.1026 37.4174 12.9234 31.758C13.9504 24.6797 18.1889 18.6836 24.5513 15.3082C30.8861 11.9476 38.1908 11.7967 44.5918 14.8978C45.8507 15.507 47.023 16.3223 48.1586 17.1118C48.326 17.2278 48.4935 17.3437 48.661 17.4597L48.6776 17.4726C51.5799 19.8302 55.3823 24.1552 57.0074 31.3734C57.4251 33.9168 57.3957 36.51 56.9245 39.0977H56.9264Z" fill="black"/>
</svg>
